<?xml version="1.0" encoding="UTF-8"?>
<svg version="1.1" viewBox="0 0 1333.3 1333.3" xmlns="http://www.w3.org/2000/svg">
<defs>
<linearGradient id="a" x2="1" gradientTransform="matrix(189.15 210.38 -210.38 189.15 400.41 454.22)" gradientUnits="userSpaceOnUse">
<stop stop-color="#009aa6" offset="0"/>
<stop stop-color="#55b8bd" offset=".45425"/>
<stop stop-color="#95d8dc" offset="1"/>
</linearGradient>
<clipPath id="b">
<path d="m0 1e3h1e3v-1e3h-1e3z"/>
</clipPath>
</defs>
<g transform="matrix(1.3333 0 0 -1.3333 0 1333.3)">
<path d="m0 0h1e3v999.6h-1e3z" fill="#202123"/>
<path d="m451.42 732.34c-4.59-1.881-7.641-6.97-7.641-12.748 0-3.1-1.708-4.989-6.637-7.307-26.179-12.329-59.317-48.593-67.854-74.25-1.573-4.72-2.832-5.762-6.966-5.762-5.951 0-12.383-7.021-12.383-13.53 0-2.359 2.188-6.458 4.869-9.103 4.792-4.745 4.86-5.115 4.311-23.767-0.643-21.51 2.536-40.515 9.746-58.37 3.398-8.415 4.05-11.8 2.553-13.286-2.637-2.612-2.57-10.557 0.119-13.219 1.175-1.159 4.556-2.158 7.531-2.226 4.397-0.1 6.974-2.057 13.89-10.557 21.377-26.279 55.538-45.435 91.861-51.524 5.403-0.907 6.704-1.973 7.659-6.282 2.325-10.489 15.8-16.31 26.332-11.354 5.419 2.552 11.725 11.228 11.725 16.141 0 0.882 5.774 2.965 12.841 4.636 16.721 3.965 37.981 14.353 53.904 26.346 11.642 8.76 13.36 9.508 19.789 8.65 12.159-1.612 19.591 9.423 14.221 21.114-1.638 3.552-1.192 5.417 2.756 11.623 7.305 11.465 14.608 31.091 18.005 48.401 1.709 8.667 4.217 16.595 5.587 17.611 1.372 1.025 2.217 3.787 1.876 6.148-0.887 6.231-9.685 7.113-11.96 1.192-2.207-5.762-35.377-34.601-38.447-33.434-1.934 0.739-2.433 7.13-2.433 31.242 0 28.957 0.168 30.419 3.762 32.788 8.388 5.518 2.434 18.501-7.6 16.561-4.152-0.806-6.601 1.125-20.338 15.948-11.523 12.438-15.478 17.906-15.089 20.845 1.099 8.306-11.489 9.231-13.238 0.966-1.26-5.971-24.524-21.096-27.66-17.989-1.098 1.092-3.702 1.982-5.798 1.982-3.078 0-5.352 3.268-11.903 17.116-5.943 12.564-7.828 18.443-7.101 22.121 1.125 5.711-1.885 8.659-7.523 7.349-2.418-0.554-6.788 1.696-13.28 6.828-8.86 7.004-9.688 8.281-9.798 14.915-0.136 9.002-6.517 15.317-14.107 15.317-1.814 1e-3 -3.697-0.36-5.581-1.132m-79.529-101.52c-2.062 2.05-1.614 4.124 2.942 13.673 11.505 24.121 33.958 48.643 56.714 61.93 12.046 7.038 13.254 7.449 14.776 5.014 0.541-0.865-12.283-16.469-28.487-34.661-35.433-39.794-41.84-47.164-44.266-47.165-0.69 0-1.058 0.594-1.679 1.209m86.571 21.879c-4.049 1.041-4.091 2.511-1.217 40.27 0.972 12.766 1.251 13.185 11.014 16.343 0.313 0.101 5.301-3.41 11.066-7.811 14.235-10.859 14.032-12.925-3.128-33.064-7.49-8.793-13.703-16.143-13.804-16.343-0.021-0.048-0.13-0.071-0.309-0.071-0.608 0-2.03 0.26-3.622 0.676m-80.874-27.447c-0.886 0.866 12.427 17.091 30.991 37.776 17.896 19.947 34.008 38.162 35.791 40.489 3.695 4.812 3.796 4.837 8.208 2.495 2.731-1.446 3.153-3.377 2.562-11.842-3.018-43.68-2.232-39.691-8.378-42.588-3.744-1.764-6.119-4.502-7.184-8.298-1.843-6.534 0.422-5.635-33.865-13.48-12.642-2.889-23.326-4.751-26.9-4.751-0.666 0-1.085 0.065-1.225 0.199m111.82 15.814c-21.725 0.017-21.725 0.017-23.89 4.628-2.045 4.367-1.42 5.459 12.106 21.046 9.053 10.431 15.545 16.436 17.769 16.436 2.679 0 5.376-3.93 11.555-16.855 6.855-14.353 7.769-17.486 6.12-21.064-1.807-3.937-2.403-4.192-21.147-4.192-0.804 0-1.641 0-2.513 1e-3m36.078-37.339c-12.316 6.366-22.688 11.808-23.051 12.085-0.356 0.277 1.901 3.704 5.021 7.609 4.801 6.014 6.678 7.097 12.248 7.097 7.837 0 10.829 2.503 10.829 9.045 0 4.023 2.012 6.148 11.953 12.682 13.085 8.583 13.898 8.919 15.478 6.383 0.592-0.958-0.228-15.37-1.826-32.032-2.147-22.315-3.618-30.847-5.588-32.376-0.465-0.363-1.049-0.564-1.86-0.565-2.964 0-8.954 2.694-23.204 10.072m31.869-10.271c-1.995 1.268-1.875 6.727 0.744 33.324 2.181 22.105 3.796 31.823 5.293 31.823 1.183 0 8.96-7.089 17.278-15.756 13.729-14.303 15.098-16.351 14.811-22.18-0.295-5.997-1.328-7.089-15.843-16.78-13.043-8.699-17.193-11.344-19.742-11.344-0.943 0-1.666 0.362-2.541 0.913m-73.375 31.645c-16.906 8.936-17.988 9.742-16.399 12.287 0.752 1.201 8.97 1.906 22.148 1.906 17.422 0 21.133-0.462 22.021-2.755 1.361-3.518-0.744-7.314-7.701-13.882l-5.538-5.223zm-102.18-107.55c-0.82 0.84-4.353 20.601-7.862 43.907l-6.382 42.387 5.352 5.307c2.941 2.915 5.35 6.828 5.35 8.701 0 2.898 3.077 4.107 20.804 8.189 11.446 2.645 24.794 5.837 29.662 7.113 11.607 3.032 10.973 3.04 12.208-0.159 1.394-3.587 0.862-4.392-12.951-19.703-10.753-11.926-11.978-12.774-17.186-11.799-14.717 2.729-24.1-12.834-13.864-22.987 3.948-3.905 4.295-5.173 2.773-10.012-0.955-3.048-5.047-16.099-9.078-29.008-3.872-12.394-7.689-21.986-8.713-21.986-0.043 0-0.081 0.016-0.113 0.05m81.524 112.19c1.767 2.117 4.54 1.252 17.904-5.593 15.682-8.03 15.792-8.13 12.697-11.834-10.507-12.555-13.526-14.966-16.661-13.303-1.742 0.924-6.459 1.68-10.491 1.68-5.748 0-8.462-1.108-12.511-5.131-2.849-2.822-5.182-6.333-5.182-7.794 0-2.234-2.088-2.503-12.832-1.672-13.931 1.084-13.922 1.084-16.737 7.677-1.767 4.14-0.88 5.669 11.462 19.652 11.506 13.043 13.838 14.916 16.729 13.387 1.252-0.664 2.948-0.968 4.777-0.968 4.088 0 8.848 1.515 10.845 3.899m34.456-56.883c-9.67 4.494-10.998 5.711-11.125 10.213-0.075 2.814-1.056 6.812-2.181 8.877-2.181 4.04-1.783 4.746 9.535 17.007l5.199 5.626 22.875-11.531c15.149-7.633 23.339-12.781 24.261-15.251 1.192-3.191-0.228-4.829-10.034-11.539-8.203-5.613-14.329-8.308-20.906-8.308-5.182-1e-3 -10.643 1.671-17.624 4.906m63.299 14.421c-0.245 1.1 7.667 7.289 17.582 13.739 25.029 16.31 24.464 16.839 24.464-22.331 0-26.194-0.389-30.645-2.681-30.645-2.777 0-38.596 35.693-39.365 39.237m-196.22-40.875c-5.046 18.342-5.512 57.797-0.685 57.797 0.93 0 1.69-0.797 1.69-1.763 0-1.806 9.79-68.288 11.565-78.534 0.721-4.153 0.557-5.951-0.179-5.951-1.993-1e-3 -8.181 13.168-12.391 28.451m68.243-4.057c-2.459 4.578-7.54 13.924-11.293 20.769-6.695 12.245-6.763 12.531-3.729 17.117 3.331 5.039 7.288 5.652 22.791 3.543 7.203-0.974 8.208-1.637 8.208-5.375 0-2.351 2.206-6.383 4.895-8.977l4.895-4.712-6.222-15.352c-5.495-13.564-6.738-15.344-10.643-15.344-3.474 8e-3 -5.402 1.814-8.902 8.331m113.88-9.398c-1.665 1.495-1.142 5.846 2.315 19.476 7.321 28.857 7.879 30.713 9.223 30.713 0.711 0 9.552-8.214 19.646-18.249 15.688-15.605 18.192-18.872 17.27-22.509-1.007-3.98-2.57-4.492-23.695-7.81-10.394-1.63-16.901-2.406-20.682-2.406-2.219 0-3.499 0.267-4.077 0.785m-16.974 12.195c-8.901 15.075-8.032 18.955 6.424 28.664 10.778 7.247 17.118 9.364 17.118 5.702 0-2.973-8.749-37.196-10.626-41.564-1.031-2.405-2.126-3.656-3.459-3.656-2.219-1e-3 -5.101 3.467-9.457 10.854m-75.041 3.956 5.959 13.857 8.597 0.999c6.772 0.781 9.501 2.117 12.917 6.324l4.328 5.333 12.139-5.449c6.67-2.999 11.869-6.241 11.555-7.207-0.472-1.453-50.491-30.839-57.228-33.627-0.452-0.187-0.854-0.279-1.206-0.279-3.314 0-2.211 8.069 2.939 20.049m-67.636-35.543c-1.157 1.386 1.243 11.666 7.313 31.427 8.733 28.378 9.197 29.378 13.737 29.378 4.176 0 6.001-2.344 16.365-21.047 6.407-11.573 10.923-21.492 10.034-22.037-0.896-0.546-1.631-2.511-1.631-4.351 0-2.553-2.223-3.972-9.29-5.929-23.089-6.374-30.894-8.476-34.086-8.476-1.404 0-1.915 0.406-2.442 1.035m234.18-11.69c-5.188 0.814-5.727 1.654-9.229 14.235-3.432 12.337-3.489 13.614-0.861 16.503 1.572 1.722 2.941 5.535 3.033 8.474 0.152 4.434 2.893 7.727 16.111 19.317 8.765 7.684 17.135 13.747 18.601 13.478 1.983-0.378 2.517-2.469 2.111-8.339-0.813-11.85-6.925-32.695-13.611-46.452-6.951-14.286-8.969-17.478-13.459-17.478-0.805 0-1.689 0.102-2.696 0.262m-174.56 14.681c2.638 1.452 5.03 4.274 5.317 6.248 0.381 2.603 8.301 8.054 28.328 19.543 25.9 14.839 33.399 18.317 31.936 14.814-0.329-0.78-9.357-13.756-20.068-28.84-16.679-23.481-20.026-27.295-23.306-26.514-2.476 0.588-5.182-0.428-7.667-2.889l-3.829-3.796-30.407 5.502c-16.721 3.023-32.393 6.155-34.828 6.953-5.393 1.764-5.3 1.806 20.432 8.475l19.552 5.064 4.878-3.612c2.448-1.811 3.787-2.658 5.211-2.658 1.191-1e-3 2.441 0.592 4.451 1.71m41.168-48.922c-10.389 13.447-11.226 15.193-11.539 24.196-0.338 9.692-0.304 9.76 19.113 37.365 10.701 15.209 19.815 27.312 20.237 26.891 0.431-0.428-0.575-23.137-2.223-50.474-1.656-27.337-3.128-49.811-3.272-49.937-0.143-0.126-2.704-0.756-5.697-1.386-0.985-0.209-1.812-0.353-2.581-0.353-3.249 0-5.445 2.573-14.038 13.698m25.631-12.354c-0.499 0.495 0.278 20.19 1.723 43.764 1.447 23.575 2.638 45.822 2.647 49.442 7e-3 3.62 0.752 6.584 1.656 6.584 0.906 0 4.573-4.779 8.15-10.615 5.9-9.625 6.305-11.086 4.386-15.68-1.766-4.233-1.614-5.921 0.939-10.196 3.01-5.055 2.917-5.543-6.247-33.022-7.902-23.671-10.653-30.633-12.531-30.633-0.254 0-0.491 0.126-0.723 0.356m7.793-3.266c-2.662 1.645-1.977 4.703 7.101 31.653 8.562 25.413 10.685 30.057 14.329 31.393 5.122 1.882 6.973 4.443 7.007 9.7 0.033 4.393 0.491 4.552 23.044 8.206 20.153 3.266 22.462 3.266 23.721 8e-3 1.36-3.527 0.067-5.09-39.579-47.678-24.664-26.496-31.808-33.515-34.783-33.515-0.324 0-0.598 0.083-0.84 0.233m5.444-3.905c0 3.534 74.686 82.152 77.154 81.22 1.317-0.503 2.774-2.225 3.247-3.821 0.463-1.596 2.12-7.383 3.683-12.841l2.835-9.935-4.633-4.594c-3.613-3.578-4.517-5.997-4.093-10.911l0.552-6.315-37.881-17.326c-20.837-9.531-38.556-17.334-39.375-17.334-0.813 0-1.489 0.84-1.489 1.857m-138.9 56.193c0.398 0.646 8.91-0.31 18.919-2.125 10-1.814 25.418-4.585 34.261-6.148 14.971-2.653 16.204-3.199 17.997-7.885 1.598-4.216 2.916-5.031 8.09-5.031 5.715 0 7.05-1.177 18.175-15.983 8.867-11.817 11.572-16.653 10.355-18.56-0.905-1.428-2.283-2.603-3.069-2.612h-3e-3c-2.798-2e-3 -105.45 57.177-104.72 58.344m99.513-66.012c-2.19 0.488-9.418 2.084-16.061 3.553-15.276 3.368-35.505 12.597-49.807 22.718-10.854 7.675-34.608 31.435-34.608 34.618 0 0.882 5.41-1.386 12.028-5.039 6.619-3.654 30.103-16.511 52.183-28.58 28.656-15.655 40.17-22.827 40.204-25.044 0.025-1.728-0.523-2.481-2.036-2.481-0.516 0-1.145 0.088-1.903 0.255m42.393 2.537c-1.259 1.251 6.4 5.652 24.582 14.126 14.532 6.778 31.996 15.041 38.818 18.375 14.556 7.123 16.787 7.593 12.224 2.554-6.009-6.627-24.861-19.031-38.184-25.12-13.518-6.187-28.363-10.595-34.648-10.595-1.375 0-2.34 0.211-2.792 0.66m4.21 286.31c-2.933-1.797-1.225-7.097 2.282-7.097 1.387 0 2.958 1.125 3.491 2.503 1.018 2.628-1.263 5.161-3.789 5.161-0.663 0-1.343-0.174-1.984-0.567m52.072-22.945c-0.684-1.108-0.414-2.838 0.6-3.846 2.384-2.36 7.932-0.303 6.955 2.587-0.582 1.741-2.587 2.742-4.447 2.742-1.27 0-2.473-0.467-3.108-1.483m-50.069-9.07c-4.454-4.409-1.141-11.934 5.25-11.934 1.716 0 3.972 1.58 5.013 3.502 2.851 5.278-1.108 10.472-5.643 10.472-1.556 0-3.18-0.611-4.62-2.04m74.009-24.221c0-2.343 1.174-3.511 3.541-3.511 2.359 0 3.534 1.168 3.534 3.511 0 2.335-1.175 3.511-3.534 3.511-2.367 0-3.541-1.176-3.541-3.511m53.466-33.703c-5.038-4.989-0.11-13.202 6.647-11.077 2.526 0.789 3.626 2.645 3.626 6.096 0 4.318-2.684 7.031-5.763 7.031-1.498 1e-3 -3.088-0.64-4.51-2.05" fill="url(#a)"/>
<g clip-path="url(#b)">
<g transform="translate(450.61 344.59)">
<path d="m0 0h-6.842v8.285h6.888c2.468 0 4.376-1.768 4.376-4.142s-1.908-4.143-4.422-4.143m3.771 15.128c0-2.095-1.63-3.771-3.91-3.771h-6.703v7.54h6.703c2.187 0 3.91-1.675 3.91-3.769m0.139-5.214c1.862 1.117 3.072 3.398 3.072 5.633 0 3.63-2.979 6.423-7.029 6.423h-9.913v-25.042h10.006c4.329 0 7.588 3.025 7.588 6.843 0 2.792-1.397 5.12-3.724 6.143" fill="#fff"/>
</g>
<g transform="translate(466.92 363.53)">
<path d="m0 0h6.145c3.071 0 5.119-1.955 5.119-4.654 0-2.654-2.048-4.609-5.119-4.609h-6.145zm11.404-22.017h3.537l-6.004 10.148c3.305 0.931 5.539 3.677 5.539 7.215 0 4.422-3.445 7.679-8.145 7.679h-9.496v-25.042h3.165v9.776h5.679z" fill="#fff"/>
</g>
<path d="m486.82 341.52h3.165v25.042h-3.165z" fill="#fff"/>
<g transform="translate(505.1 344.45)">
<path d="m0 0h-5.074v19.131h5.074c5.632 0 9.588-4.05 9.588-9.543 0-5.538-3.956-9.588-9.588-9.588m0.093 22.109h-8.332v-25.042h8.332c7.354 0 12.707 5.26 12.707 12.521 0 7.215-5.353 12.474-12.707 12.474z" fill="#fff"/>
</g>
<g transform="translate(533.21 353.9)">
<path d="m0 0v-2.933h10.007c-0.931-4.095-4.515-6.796-9.076-6.796-5.679 0-9.542 4.05-9.542 9.822 0 5.771 3.956 9.821 9.542 9.821 4.188 0 7.773-2.374 8.843-6.051h3.258c-1.117 5.4-6.19 9.123-12.194 9.123-7.309 0-12.614-5.446-12.614-12.893s5.305-12.893 12.707-12.893c7.215 0 12.335 5.26 12.474 12.8z" fill="#fff"/>
</g>
<path d="m551.68 341.52h3.165v25.042h-3.165z" fill="#fff"/>
<g transform="translate(578.56 366.56)">
<path d="m0 0v-19.316l-14.01 19.316h-2.84v-25.042h3.073v19.503l14.243-19.503h2.653v25.042z" fill="#fff"/>
</g>
<g transform="translate(598.63 353.9)">
<path d="m0 0v-2.933h10.007c-0.932-4.095-4.518-6.796-9.079-6.796-5.68 0-9.541 4.05-9.541 9.822 0 5.771 3.959 9.821 9.541 9.821 4.19 0 7.772-2.374 8.845-6.051h3.259c-1.117 5.4-6.191 9.123-12.197 9.123-7.307 0-12.613-5.446-12.613-12.893s5.306-12.893 12.706-12.893c7.216 0 12.334 5.26 12.475 12.8z" fill="#fff"/>
</g>
<path d="m626.53 341.52h3.166v25.042h-3.166z" fill="#fff"/>
<g transform="translate(653.41 366.56)">
<path d="m0 0v-19.316l-14.009 19.316h-2.839v-25.042h3.074v19.503l14.242-19.503h2.654v25.042z" fill="#fff"/>
</g>
<g transform="translate(680.24 366.56)">
<path d="m0 0v-19.316l-14.013 19.316h-2.84v-25.042h3.074v19.503l14.243-19.503h2.653v25.042z" fill="#fff"/>
</g>
<g transform="translate(701.61 344.17)">
<path d="m0 0c-5.675 0-9.915 4.236-9.915 9.821 0 5.633 4.24 9.868 9.915 9.868 5.679 0 9.914-4.235 9.914-9.868 0-5.632-4.235-9.821-9.914-9.821m0-3.072c7.587 0 13.081 5.54 13.081 12.893 0 7.402-5.494 12.94-13.081 12.94s-13.125-5.538-13.125-12.94c0-7.353 5.538-12.893 13.125-12.893" fill="#fff"/>
</g>
<g transform="translate(736.64 366.56)">
<path d="m0 0-7.963-20.341-8.099 20.341h-3.445l10.105-25.042h2.883l9.963 25.042z" fill="#fff"/>
</g>
<g transform="translate(753.25 362.23)">
<path d="m0 0 4.889-11.869h-9.685zm8.563-20.713h3.352l-10.471 25.042h-2.932l-10.241-25.042h3.303l2.469 5.958h12.056z" fill="#fff"/>
</g>
<g transform="translate(784.96 366.56)">
<path d="m0 0h-18.341v-2.979h7.636v-22.063h3.118v22.063h7.587z" fill="#fff"/>
</g>
<path d="m789.2 341.52h3.166v25.042h-3.166z" fill="#fff"/>
<g transform="translate(810.64 344.17)">
<path d="m0 0c-5.68 0-9.914 4.236-9.914 9.821 0 5.633 4.234 9.868 9.914 9.868s9.914-4.235 9.914-9.868c0-5.632-4.234-9.821-9.914-9.821m0-3.072c7.587 0 13.081 5.54 13.081 12.893 0 7.402-5.494 12.94-13.081 12.94s-13.125-5.538-13.125-12.94c0-7.353 5.538-12.893 13.125-12.893" fill="#fff"/>
</g>
<g transform="translate(845.76 366.56)">
<path d="m0 0v-19.316l-14.013 19.316h-2.84v-25.042h3.075v19.503l14.242-19.503h2.654v25.042z" fill="#fff"/>
</g>
<g transform="translate(863.18 341.19)">
<path d="m0 0c4.981 0 8.846 2.699 8.846 7.4 0 5.213-4.421 6.238-8.378 7.215-3.215 0.744-6.099 1.489-6.099 4.189 0 2.421 2.278 3.817 5.353 3.817 3.025 0 5.308-1.583 5.308-4.375h3.117c0 4.515-3.214 7.4-8.376 7.4-5.167 0-8.52-2.606-8.52-6.935 0-5.026 4.279-6.051 8.144-6.936 3.259-0.791 6.191-1.489 6.191-4.421 0-2.653-2.468-4.283-5.586-4.283-3.489 0-6.002 1.816-6.002 4.935h-3.215c0-4.935 3.728-8.006 9.217-8.006" fill="#fff"/>
</g>
<g transform="translate(450.47 287.34)">
<path d="m0 0c5.632 0 9.774 4.05 9.774 9.729v15.732h-3.118v-15.5c0-4.143-2.793-6.887-6.656-6.887-3.91 0-6.656 2.744-6.656 6.887v15.5h-3.165v-15.732c0-5.679 4.188-9.729 9.821-9.729" fill="#fff"/>
</g>
<g transform="translate(483.7 312.8)">
<path d="m0 0v-19.316l-14.01 19.316h-2.84v-25.041h3.073v19.502l14.243-19.502h2.653v25.041z" fill="#fff"/>
</g>
<path d="m493.68 287.76h3.165v25.041h-3.165z" fill="#fff"/>
<g transform="translate(519.4 312.8)">
<path d="m0 0h-18.34v-2.979h7.634v-22.062h3.119v22.062h7.587z" fill="#fff"/>
</g>
<path d="m523.64 287.76h3.165v25.041h-3.165z" fill="#fff"/>
<g transform="translate(550.52 312.8)">
<path d="m0 0v-19.316l-14.011 19.316h-2.839v-25.041h3.073v19.502l14.243-19.502h2.653v25.041z" fill="#fff"/>
</g>
<g transform="translate(570.59 300.14)">
<path d="m0 0v-2.933h10.007c-0.931-4.095-4.515-6.794-9.076-6.794-5.679 0-9.542 4.048-9.542 9.82s3.956 9.821 9.542 9.821c4.189 0 7.773-2.374 8.843-6.051h3.258c-1.116 5.4-6.19 9.123-12.194 9.123-7.308 0-12.614-5.446-12.614-12.893s5.306-12.894 12.707-12.894c7.215 0 12.335 5.26 12.474 12.801z" fill="#fff"/>
</g>
<g transform="translate(608.59 300.14)">
<path d="m0 0v-2.933h10.008c-0.928-4.095-4.514-6.794-9.076-6.794-5.679 0-9.539 4.048-9.539 9.82s3.953 9.821 9.539 9.821c4.191 0 7.773-2.374 8.845-6.051h3.26c-1.117 5.4-6.191 9.123-12.198 9.123-7.309 0-12.612-5.446-12.612-12.893s5.303-12.894 12.705-12.894c7.216 0 12.335 5.26 12.476 12.801z" fill="#fff"/>
</g>
<g transform="translate(630.23 290.78)">
<path d="m0 0v8.377h10.052v2.887h-10.052v7.726h10.983v3.026h-14.149v-25.041h14.568v3.025z" fill="#fff"/>
</g>
<g transform="translate(663.73 312.8)">
<path d="m0 0v-19.316l-14.009 19.316h-2.84v-25.041h3.07v19.502l14.247-19.502h2.649v25.041z" fill="#fff"/>
</g>
<g transform="translate(676.87 290.78)">
<path d="m0 0v8.377h10.052v2.887h-10.052v7.726h10.983v3.026h-14.149v-25.041h14.569v3.025z" fill="#fff"/>
</g>
<g transform="translate(696.68 309.77)">
<path d="m0 0h6.146c3.07 0 5.12-1.955 5.12-4.655 0-2.653-2.05-4.608-5.12-4.608h-6.146zm11.406-22.016h3.538l-6.006 10.147c3.303 0.931 5.538 3.677 5.538 7.214 0 4.423-3.445 7.68-8.144 7.68h-9.494v-25.041h3.162v9.774h5.679z" fill="#fff"/>
</g>
<g transform="translate(725.53 308.47)">
<path d="m0 0 4.889-11.869h-9.681zm8.567-20.712h3.353l-10.476 25.041h-2.932l-10.241-25.041h3.307l2.465 5.957h12.056z" fill="#fff"/>
</g>
<g transform="translate(757.24 312.8)">
<path d="m0 0h-18.336v-2.979h7.631v-22.062h3.118v22.062h7.587z" fill="#fff"/>
</g>
<path d="m761.48 287.76h3.166v25.041h-3.166z" fill="#fff"/>
<g transform="translate(782.92 290.41)">
<path d="m0 0c-5.675 0-9.91 4.233-9.91 9.819 0 5.632 4.235 9.868 9.91 9.868 5.679 0 9.914-4.236 9.914-9.868s-4.235-9.819-9.914-9.819m0-3.074c7.587 0 13.081 5.539 13.081 12.893 0 7.401-5.494 12.94-13.081 12.94s-13.125-5.539-13.125-12.94c0-7.354 5.538-12.893 13.125-12.893" fill="#fff"/>
</g>
<g transform="translate(818.05 312.8)">
<path d="m0 0v-19.316l-14.013 19.316h-2.84v-25.041h3.074v19.502l14.242-19.502h2.654v25.041z" fill="#fff"/>
</g>
<g transform="translate(835.46 287.43)">
<path d="m0 0c4.981 0 8.842 2.699 8.842 7.401 0 5.214-4.421 6.238-8.378 7.215-3.21 0.745-6.094 1.49-6.094 4.19 0 2.421 2.278 3.817 5.352 3.817 3.025 0 5.304-1.583 5.304-4.376h3.118c0 4.515-3.21 7.4-8.377 7.4s-8.52-2.606-8.52-6.934c0-5.027 4.284-6.052 8.149-6.936 3.258-0.792 6.191-1.489 6.191-4.422 0-2.653-2.469-4.281-5.587-4.281-3.493 0-6.006 1.815-6.006 4.933h-3.211c0-4.933 3.724-8.007 9.217-8.007" fill="#fff"/>
</g>
<g transform="translate(200.75 318.08)">
<path d="m0 0-8.825 22.964h-0.174l-8.782-22.964zm-0.608 47.408 31.866-79.043h-19.346l-5.826 15.819h-29.997l-5.825-15.819h-19.347l31.867 79.043z" fill="#fff"/>
</g>
<g transform="translate(306.34 330.72)">
<path d="m0 0v-17.168c-2.032-9.39-6.5-16.492-13.39-21.308-6.869-4.825-14.542-7.231-22.998-7.231-10.673 0-19.737 3.983-27.215 11.981-7.477 7.985-11.216 17.625-11.216 28.933 0 11.503 3.652 21.198 10.955 29.106 7.326 7.931 16.488 11.896 27.476 11.896 12.804 0 22.933-4.51 30.388-13.508l-11.781-12.941c-4.206 6.765-10.064 10.153-17.563 10.153-5.565 0-10.304-2.418-14.216-7.233-3.913-4.826-5.869-10.654-5.869-17.473 0-6.711 1.956-12.451 5.869-17.212 3.912-4.771 8.651-7.145 14.216-7.145 4.575 0 8.564 1.393 11.955 4.182 3.412 2.789 5.13 6.471 5.13 11.068h-18.129v13.9z" fill="#fff"/>
</g>
<g transform="translate(309.34 349.67)">
<path d="m0 0v15.817h55.43v-15.817h-18.738v-63.226h-17.954v63.226z" fill="#fff"/>
</g>
<path d="m401.43 375.76h6.536v-98.04h-6.536z" fill="#bdc4d0"/>
</g>
</g>
</svg>
