<?xml version="1.0" encoding="UTF-8"?>
<svg version="1.1" viewBox="0 0 2218.7 1333.3" xmlns="http://www.w3.org/2000/svg">
<defs>
<linearGradient id="b" x2="1" gradientTransform="matrix(227.37 0 0 -227.37 201.63 912.58)" gradientUnits="userSpaceOnUse">
<stop stop-color="#29a8b1" offset="0"/>
<stop stop-color="#55b8bd" offset=".45"/>
<stop stop-color="#95d8dc" offset="1"/>
</linearGradient>
<linearGradient id="a" x2="1" gradientTransform="matrix(223.59 0 0 -223.59 988.91 912.37)" gradientUnits="userSpaceOnUse">
<stop stop-color="#016f78" offset="0"/>
<stop stop-color="#016f78" offset="3.4e-7"/>
<stop stop-color="#009aa6" offset=".45"/>
<stop stop-color="#04cad9" offset="1"/>
</linearGradient>
<linearGradient id="d" x2="1" gradientTransform="matrix(105.39 117.22 -117.22 105.39 343.44 453.13)" gradientUnits="userSpaceOnUse">
<stop stop-color="#009aa6" offset="0"/>
<stop stop-color="#55b8bd" offset=".45425"/>
<stop stop-color="#95d8dc" offset="1"/>
</linearGradient>
<clipPath id="f">
<path d="m0 1e3h1664v-1e3h-1664z"/>
</clipPath>
<linearGradient id="c" x2="1" gradientTransform="matrix(107.49 119.56 -119.56 107.49 1202.9 455.3)" gradientUnits="userSpaceOnUse">
<stop stop-color="#016f78" offset="0"/>
<stop stop-color="#009aa6" offset=".45425"/>
<stop stop-color="#04cad9" offset="1"/>
</linearGradient>
<clipPath id="e">
<path d="m0 1e3h1664v-1e3h-1664z"/>
</clipPath>
</defs>
<g transform="matrix(1.3333 0 0 -1.3333 0 1333.3)">
<path d="m191.41 878h-69.161v69.161h69.161z" fill="#202123"/>
<path d="m122.75 860.66h68.161v-68.161h-68.161z" fill="#fff"/>
<path d="m191.41 861.16h-69.161v-69.161h69.161zm-1-68.161h-67.161v67.161h67.161z" fill="#202123"/>
<path d="m270.41 792h-69.161v69.161h69.161z" fill="#bdc4d0"/>
<path d="m429 878h-227.38v69.161h227.38z" fill="url(#b)"/>
<path d="m513.16 878h-69.161v69.161h69.161z" fill="#29a8b1"/>
<path d="m592.54 878h-69.161v69.161h69.161z" fill="#55b8bd"/>
<path d="m671.91 878h-69.161v69.161h69.161z" fill="#95d8dc"/>
<path d="m1296.7 878h-69.161v69.161h69.161z" fill="#016f78"/>
<path d="m1376 878h-69.161v69.161h69.161z" fill="#009aa6"/>
<path d="m1058.7 792h-69.161v69.161h69.161z" fill="#3d4f6b"/>
<path d="m1138 792h-69.161v69.161h69.161z" fill="#bdc4d0"/>
<path d="m1455.4 878h-69.161v69.161h69.161z" fill="#04cad9"/>
<path d="m1212.5 877.57h-223.59v69.591h223.59z" fill="url(#a)"/>
<path d="m677.51 199.82h-557.26v557.18h557.26z" fill="#202123"/>
<path d="m371.86 608.09c-2.558-1.048-4.258-3.884-4.258-7.104 0-1.726-0.951-2.779-3.697-4.07-14.587-6.87-33.05-27.075-37.807-41.371-0.876-2.629-1.578-3.21-3.881-3.21-3.315 0-6.899-3.912-6.899-7.538 0-1.315 1.219-3.598 2.712-5.073 2.671-2.644 2.708-2.85 2.402-13.242-0.358-11.985 1.413-22.574 5.431-32.522 1.893-4.69 2.255-6.575 1.422-7.403-1.47-1.455-1.432-5.883 0.066-7.366 0.655-0.645 2.539-1.202 4.196-1.24 2.45-0.056 3.887-1.147 7.739-5.881 11.912-14.642 30.945-25.317 51.184-28.709 3.009-0.505 3.735-1.099 4.267-3.5 1.295-5.844 8.803-9.088 14.671-6.327 3.02 1.423 6.533 6.257 6.533 8.994 0 0.491 3.217 1.652 7.154 2.583 9.317 2.21 21.163 7.997 30.035 14.68 6.487 4.88 7.443 5.296 11.026 4.819 6.775-0.898 10.915 5.25 7.924 11.764-0.914 1.979-0.665 3.019 1.535 6.477 4.07 6.387 8.14 17.323 10.032 26.967 0.952 4.829 2.35 9.247 3.113 9.813 0.765 0.571 1.235 2.11 1.046 3.425-0.495 3.473-5.397 3.963-6.664 0.665-1.23-3.211-19.712-19.279-21.422-18.629-1.078 0.412-1.355 3.973-1.355 17.407 0 16.135 0.092 16.949 2.096 18.268 4.673 3.075 1.355 10.31-4.236 9.228-2.313-0.449-3.678 0.628-11.332 8.886-6.419 6.931-8.623 9.976-8.406 11.615 0.612 4.628-6.401 5.143-7.377 0.538-0.701-3.327-13.664-11.754-15.411-10.024-0.612 0.609-2.063 1.105-3.231 1.105-1.714 0-2.981 1.82-6.631 9.537-3.312 7-4.362 10.276-3.957 12.325 0.626 3.182-1.05 4.824-4.191 4.094-1.348-0.308-3.783 0.946-7.4 3.805-4.936 3.903-5.397 4.614-5.459 8.31-0.076 5.016-3.631 8.535-7.86 8.535-1.011 0-2.06-0.201-3.11-0.631m-44.311-56.565c-1.15 1.142-0.899 2.298 1.639 7.619 6.41 13.438 18.92 27.102 31.6 34.506 6.711 3.921 7.384 4.15 8.233 2.793 0.3-0.482-6.844-9.176-15.873-19.312-19.742-22.172-23.312-26.279-24.664-26.279-0.384-1e-3 -0.589 0.331-0.935 0.673m48.235 12.191c-2.256 0.579-2.279 1.398-0.678 22.438 0.541 7.111 0.696 7.346 6.137 9.105 0.174 0.057 2.954-1.9 6.165-4.352 7.932-6.05 7.819-7.201-1.743-18.423-4.172-4.898-7.634-8.993-7.691-9.106-0.012-0.026-0.072-0.039-0.171-0.039-0.338 0-1.131 0.145-2.019 0.377m-45.061-15.293c-0.494 0.482 6.924 9.523 17.268 21.048 9.971 11.113 18.947 21.264 19.941 22.56 2.059 2.681 2.116 2.694 4.574 1.389 1.521-0.804 1.756-1.881 1.427-6.598-1.681-24.337-1.244-22.115-4.667-23.729-2.088-0.983-3.411-2.508-4.005-4.623-1.026-3.641 0.236-3.14-18.867-7.511-7.045-1.609-12.998-2.647-14.989-2.647-0.371 0-0.604 0.036-0.682 0.111m62.304 8.811c-12.105 0.01-12.105 0.01-13.311 2.579-1.139 2.433-0.791 3.041 6.745 11.726 5.044 5.812 8.662 9.158 9.901 9.158 1.493 0 2.995-2.19 6.438-9.392 3.82-7.996 4.329-9.742 3.411-11.736-1.008-2.194-1.341-2.336-11.79-2.336-0.446 0-0.91 1e-3 -1.394 1e-3m20.103-20.805c-6.863 3.547-12.643 6.579-12.845 6.734-0.198 0.155 1.06 2.064 2.798 4.24 2.675 3.35 3.722 3.954 6.825 3.954 4.366 0 6.033 1.394 6.033 5.04 0 2.241 1.122 3.425 6.66 7.066 7.291 4.782 7.744 4.969 8.624 3.556 0.33-0.534-0.127-8.563-1.017-17.847-1.196-12.433-2.016-17.188-3.113-18.039-0.259-0.202-0.585-0.315-1.037-0.315-1.651 0-4.988 1.501-12.928 5.611m17.756-5.722c-1.112 0.707-1.045 3.748 0.415 18.568 1.215 12.316 2.115 17.73 2.948 17.73 0.66 0 4.993-3.949 9.627-8.778 7.65-7.97 8.413-9.111 8.253-12.359-0.165-3.341-0.741-3.949-8.828-9.349-7.267-4.847-9.579-6.32-10.999-6.321-0.525 0-0.929 0.202-1.416 0.509m-40.883 17.632c-9.42 4.979-10.023 5.428-9.136 6.846 0.418 0.669 4.996 1.062 12.34 1.062 9.707 0 11.774-0.257 12.268-1.535 0.759-1.961-0.414-4.076-4.29-7.735l-3.085-2.911zm-56.929-59.925c-0.457 0.468-2.426 11.479-4.38 24.464l-3.556 23.617 2.98 2.958c1.639 1.623 2.982 3.804 2.982 4.848 0 1.614 1.715 2.288 11.591 4.562 6.378 1.474 13.815 3.253 16.528 3.963 6.467 1.69 6.114 1.694 6.801-0.088 0.778-1.999 0.481-2.448-7.215-10.979-5.991-6.644-6.675-7.117-9.576-6.574-8.2 1.521-13.428-7.15-7.725-12.807 2.2-2.176 2.393-2.883 1.545-5.578-0.531-1.699-2.811-8.971-5.058-16.163-2.158-6.906-4.284-12.251-4.854-12.251-0.024 0-0.045 9e-3 -0.063 0.028m45.423 62.508c0.984 1.179 2.53 0.697 9.975-3.117 8.738-4.473 8.799-4.529 7.075-6.593-5.855-6.996-7.536-8.338-9.283-7.411-0.97 0.513-3.598 0.935-5.846 0.935-3.202 0-4.714-0.618-6.97-2.859-1.588-1.572-2.887-3.529-2.887-4.342 0-1.246-1.164-1.395-7.15-0.932-7.762 0.603-7.758 0.603-9.326 4.277-0.984 2.307-0.49 3.158 6.387 10.95 6.41 7.267 7.71 8.311 9.321 7.459 0.697-0.371 1.641-0.54 2.661-0.54 2.277 0 4.93 0.844 6.043 2.173m19.198-31.693c-5.389 2.503-6.128 3.181-6.199 5.689-0.042 1.568-0.588 3.795-1.215 4.947-1.215 2.25-0.993 2.644 5.313 9.475l2.896 3.136 12.746-6.425c8.44-4.254 13.004-7.122 13.518-8.498 0.664-1.779-0.128-2.691-5.591-6.43-4.57-3.127-7.983-4.629-11.648-4.629-2.887 0-5.931 0.932-9.82 2.735m35.268 8.034c-0.137 0.613 4.272 4.062 9.797 7.655 13.946 9.088 13.631 9.383 13.631-12.442 0-14.595-0.217-17.075-1.494-17.075-1.547 0-21.505 19.887-21.934 21.862m-109.33-22.774c-2.812 10.219-3.071 32.202-0.382 32.202 0.519 0 0.942-0.443 0.942-0.982 0-1.006 5.454-38.048 6.443-43.757 0.402-2.314 0.311-3.316-0.099-3.316-1.111-1e-3 -4.559 7.337-6.904 15.853m38.024-2.261c-1.371 2.55-4.201 7.759-6.293 11.572-3.731 6.823-3.767 6.982-2.077 9.537 1.856 2.807 4.06 3.149 12.698 1.975 4.013-0.544 4.574-0.913 4.574-2.995 0-1.31 1.229-3.557 2.727-5.003l2.727-2.625-3.466-8.553c-3.062-7.558-3.755-8.551-5.931-8.551-1.935 6e-3 -3.01 1.011-4.959 4.643m63.448-5.236c-0.928 0.833-0.635 3.257 1.291 10.851 4.078 16.079 4.389 17.113 5.138 17.113 0.396 0 5.322-4.577 10.946-10.169 8.741-8.694 10.137-10.514 9.622-12.54-0.56-2.218-1.431-2.503-13.202-4.352-5.791-0.908-9.416-1.34-11.523-1.34-1.236 0-1.95 0.149-2.272 0.437m-9.457 6.794c-4.96 8.4-4.475 10.562 3.579 15.971 6.006 4.038 9.537 5.217 9.537 3.178 0-1.657-4.874-20.725-5.92-23.159-0.574-1.34-1.184-2.037-1.927-2.037-1.237 0-2.842 1.931-5.269 6.047m-41.812 2.205 3.322 7.721 4.789 0.556c3.773 0.436 5.294 1.179 7.197 3.524l2.412 2.971 6.763-3.036c3.716-1.672 6.613-3.477 6.439-4.015-0.264-0.81-28.133-17.184-31.887-18.737-0.252-0.105-0.476-0.155-0.672-0.155-1.846 0-1.232 4.495 1.637 11.171m-37.683-19.804c-0.647 0.772 0.691 6.5 4.073 17.51 4.865 15.812 5.125 16.369 7.654 16.369 2.327 0 3.344-1.306 9.118-11.726 3.571-6.449 6.086-11.975 5.591-12.279-0.498-0.304-0.909-1.4-0.909-2.425 0-1.423-1.238-2.212-5.176-3.303-12.864-3.552-17.213-4.722-18.991-4.723-0.783 0-1.067 0.227-1.36 0.577m130.48-6.513c-2.891 0.453-3.192 0.921-5.143 7.931-1.911 6.875-1.943 7.586-0.479 9.195 0.875 0.96 1.639 3.084 1.69 4.721 0.083 2.471 1.612 4.306 8.976 10.763 4.885 4.282 9.548 7.66 10.365 7.511 1.104-0.211 1.402-1.376 1.176-4.647-0.453-6.602-3.858-18.217-7.583-25.881-3.873-7.961-4.998-9.739-7.5-9.739-0.449 0-0.941 0.057-1.502 0.146m-97.26 8.179c1.469 0.809 2.802 2.382 2.962 3.482 0.213 1.45 4.625 4.487 15.784 10.888 14.431 8.268 18.608 10.206 17.794 8.255-0.184-0.435-5.214-7.665-11.182-16.069-9.292-13.084-11.158-15.208-12.985-14.773-1.38 0.327-2.887-0.239-4.272-1.609l-2.134-2.116-16.942 3.065c-9.316 1.685-18.049 3.43-19.405 3.875-3.005 0.983-2.953 1.007 11.384 4.721l10.895 2.822 2.717-2.012c1.365-1.009 2.111-1.482 2.904-1.482 0.663 0 1.36 0.331 2.48 0.953m22.938-27.257c-5.789 7.491-6.255 8.465-6.43 13.481-0.188 5.4-0.17 5.437 10.649 20.818 5.963 8.475 11.04 15.218 11.276 14.984 0.241-0.239-0.32-12.892-1.238-28.124-0.924-15.23-1.744-27.753-1.824-27.823-0.08-0.069-1.506-0.421-3.174-0.772-0.549-0.117-1.01-0.197-1.438-0.197-1.81 0-3.033 1.433-7.821 7.633m14.28-6.884c-0.278 0.277 0.156 11.248 0.96 24.385 0.806 13.134 1.47 25.53 1.476 27.547 4e-3 2.017 0.418 3.668 0.922 3.668 0.505 0 2.549-2.662 4.541-5.914 3.287-5.362 3.513-6.176 2.444-8.737-0.985-2.358-0.899-3.299 0.523-5.68 1.677-2.817 1.625-3.088-3.481-18.4-4.403-13.188-5.935-17.067-6.982-17.067-0.141 0-0.273 0.07-0.403 0.198m4.343-1.82c-1.484 0.917-1.103 2.62 3.956 17.636 4.771 14.161 5.954 16.748 7.983 17.492 2.855 1.048 3.886 2.475 3.905 5.405 0.019 2.447 0.273 2.536 12.84 4.572 11.228 1.82 12.515 1.82 13.216 4e-3 0.758-1.965 0.037-2.836-22.053-26.565-13.742-14.764-17.722-18.674-19.38-18.674-0.18 0-0.332 0.046-0.467 0.13m3.033-2.177c0 1.971 41.613 45.775 42.988 45.256 0.734-0.282 1.546-1.24 1.809-2.129 0.258-0.89 1.181-4.114 2.052-7.155l1.58-5.536-2.582-2.56c-2.012-1.993-2.516-3.341-2.28-6.079l0.308-3.518-21.107-9.654c-11.61-5.311-21.482-9.659-21.939-9.659-0.452 0-0.829 0.468-0.829 1.034m-77.395 31.31c0.221 0.361 4.964-0.172 10.541-1.183 5.572-1.011 14.163-2.555 19.09-3.425 8.341-1.48 9.029-1.783 10.028-4.394 0.89-2.349 1.624-2.804 4.507-2.804 3.184 0 3.928-0.655 10.127-8.904 4.941-6.585 6.447-9.28 5.769-10.341-0.504-0.796-1.272-1.452-1.71-1.456l-1e-3 -1e-3c-1.553-3e-3 -58.756 31.858-58.351 32.508m55.446-36.779c-1.22 0.272-5.247 1.16-8.948 1.979-8.512 1.877-19.782 7.019-27.752 12.658-6.048 4.278-19.283 17.515-19.283 19.289 0 0.491 3.015-0.773 6.703-2.808 3.688-2.036 16.771-9.2 29.074-15.925 15.967-8.721 22.383-12.717 22.402-13.954 0.013-0.962-0.292-1.381-1.134-1.381-0.288 0-0.639 0.049-1.062 0.142m23.621 1.413c-0.702 0.698 3.565 3.149 13.696 7.872 8.097 3.775 17.828 8.379 21.629 10.238 8.11 3.967 9.353 4.229 6.811 1.421-3.349-3.691-13.853-10.603-21.276-13.996-7.531-3.448-15.802-5.902-19.304-5.903-0.766 0-1.304 0.118-1.556 0.368m2.345 159.52c-1.634-1.002-0.682-3.954 1.272-3.954 0.773 0 1.649 0.628 1.945 1.394 0.567 1.465-0.704 2.876-2.111 2.876-0.37 0-0.748-0.097-1.106-0.316m29.014-12.784c-0.381-0.618-0.231-1.582 0.334-2.143 1.329-1.315 4.419-0.169 3.876 1.442-0.324 0.969-1.442 1.527-2.478 1.527-0.708 0-1.378-0.26-1.732-0.826m-27.898-5.054c-2.481-2.456-0.635-6.649 2.926-6.649 0.956 0 2.213 0.879 2.793 1.951 1.588 2.941-0.617 5.835-3.144 5.835-0.867 0-1.772-0.341-2.575-1.137m41.236-13.495c0-1.305 0.655-1.956 1.974-1.956 1.314 0 1.969 0.651 1.969 1.956 0 1.301-0.655 1.956-1.969 1.956-1.319 0-1.974-0.655-1.974-1.956m29.791-18.779c-2.808-2.779-0.061-7.356 3.704-6.172 1.407 0.44 2.019 1.474 2.019 3.397 0 2.406-1.495 3.917-3.211 3.918-0.834 0-1.72-0.357-2.512-1.143" fill="url(#d)"/>
<g clip-path="url(#f)">
<g transform="translate(371.41 392.04)">
<path d="m0 0h-3.813v4.616h3.838c1.375 0 2.438-0.985 2.438-2.308s-1.063-2.308-2.463-2.308m2.101 8.429c0-1.167-0.908-2.101-2.179-2.101h-3.735v4.201h3.735c1.219 0 2.179-0.933 2.179-2.1m0.077-2.906c1.037 0.623 1.712 1.894 1.712 3.139 0 2.023-1.66 3.578-3.916 3.578h-5.524v-13.952h5.575c2.413 0 4.228 1.686 4.228 3.813 0 1.555-0.778 2.852-2.075 3.422" fill="#fff"/>
</g>
<g transform="translate(380.49 402.6)">
<path d="m0 0h3.424c1.711 0 2.852-1.089 2.852-2.593 0-1.478-1.141-2.568-2.852-2.568h-3.424zm6.354-12.267h1.971l-3.346 5.654c1.842 0.519 3.087 2.049 3.087 4.02 0 2.464-1.92 4.279-4.539 4.279h-5.29v-13.953h1.763v5.447h3.164z" fill="#fff"/>
</g>
<path d="m391.58 390.33h1.764v13.952h-1.764z" fill="#fff"/>
<g transform="translate(401.77 391.96)">
<path d="m0 0h-2.827v10.659h2.827c3.138 0 5.342-2.257 5.342-5.316 0-3.086-2.204-5.343-5.342-5.343m0.052 12.318h-4.643v-13.952h4.643c4.097 0 7.08 2.931 7.08 6.977 0 4.019-2.983 6.95-7.08 6.95z" fill="#fff"/>
</g>
<g transform="translate(417.43 397.23)">
<path d="m0 0v-1.634h5.576c-0.519-2.282-2.516-3.786-5.057-3.786-3.165 0-5.317 2.256-5.317 5.472s2.204 5.472 5.317 5.472c2.334 0 4.331-1.323 4.927-3.371h1.815c-0.622 3.008-3.449 5.083-6.794 5.083-4.072 0-7.029-3.035-7.029-7.184 0-4.15 2.957-7.184 7.081-7.184 4.019 0 6.872 2.931 6.95 7.132z" fill="#fff"/>
</g>
<path d="m427.72 390.33h1.763v13.952h-1.763z" fill="#fff"/>
<g transform="translate(442.7 404.28)">
<path d="m0 0v-10.763l-7.806 10.763h-1.582v-13.952h1.711v10.866l7.936-10.866h1.478v13.952z" fill="#fff"/>
</g>
<g transform="translate(453.88 397.23)">
<path d="m0 0v-1.634h5.576c-0.519-2.282-2.517-3.786-5.059-3.786-3.164 0-5.316 2.256-5.316 5.472s2.206 5.472 5.316 5.472c2.335 0 4.331-1.323 4.928-3.371h1.816c-0.622 3.008-3.449 5.083-6.796 5.083-4.071 0-7.027-3.035-7.027-7.184 0-4.15 2.956-7.184 7.079-7.184 4.021 0 6.872 2.931 6.951 7.132z" fill="#fff"/>
</g>
<path d="m469.43 390.33h1.764v13.952h-1.764z" fill="#fff"/>
<g transform="translate(484.4 404.28)">
<path d="m0 0v-10.763l-7.805 10.763h-1.582v-13.952h1.712v10.866l7.936-10.866h1.479v13.952z" fill="#fff"/>
</g>
<g transform="translate(499.35 404.28)">
<path d="m0 0v-10.763l-7.808 10.763h-1.582v-13.952h1.713v10.866l7.935-10.866h1.479v13.952z" fill="#fff"/>
</g>
<g transform="translate(511.26 391.81)">
<path d="m0 0c-3.162 0-5.524 2.36-5.524 5.472 0 3.138 2.362 5.498 5.524 5.498 3.164 0 5.523-2.36 5.523-5.498s-2.359-5.472-5.523-5.472m0-1.712c4.228 0 7.288 3.086 7.288 7.184 0 4.124-3.06 7.21-7.288 7.21s-7.313-3.086-7.313-7.21c0-4.098 3.085-7.184 7.313-7.184" fill="#fff"/>
</g>
<g transform="translate(530.78 404.28)">
<path d="m0 0-4.437-11.333-4.512 11.333h-1.919l5.63-13.952h1.606l5.552 13.952z" fill="#fff"/>
</g>
<g transform="translate(540.03 401.87)">
<path d="m0 0 2.725-6.613h-5.397zm4.771-11.541h1.868l-5.834 13.952h-1.634l-5.706-13.952h1.841l1.375 3.319h6.717z" fill="#fff"/>
</g>
<g transform="translate(557.7 404.28)">
<path d="m0 0h-10.219v-1.659h4.254v-12.293h1.737v12.293h4.228z" fill="#fff"/>
</g>
<path d="m560.06 390.33h1.765v13.952h-1.765z" fill="#fff"/>
<g transform="translate(572.01 391.81)">
<path d="m0 0c-3.164 0-5.524 2.36-5.524 5.472 0 3.138 2.36 5.498 5.524 5.498s5.524-2.36 5.524-5.498-2.36-5.472-5.524-5.472m0-1.712c4.228 0 7.288 3.086 7.288 7.184 0 4.124-3.06 7.21-7.288 7.21s-7.312-3.086-7.312-7.21c0-4.098 3.084-7.184 7.312-7.184" fill="#fff"/>
</g>
<g transform="translate(591.58 404.28)">
<path d="m0 0v-10.763l-7.808 10.763h-1.582v-13.952h1.713v10.866l7.936-10.866h1.478v13.952z" fill="#fff"/>
</g>
<g transform="translate(601.28 390.15)">
<path d="m0 0c2.775 0 4.929 1.504 4.929 4.124 0 2.904-2.464 3.475-4.668 4.02-1.792 0.415-3.399 0.83-3.399 2.334 0 1.348 1.27 2.126 2.983 2.126 1.685 0 2.958-0.881 2.958-2.438h1.736c0 2.516-1.791 4.124-4.667 4.124-2.879 0-4.747-1.452-4.747-3.864 0-2.801 2.385-3.371 4.537-3.864 1.817-0.442 3.45-0.831 3.45-2.464 0-1.479-1.375-2.386-3.112-2.386-1.944 0-3.345 1.011-3.345 2.749h-1.791c0-2.749 2.077-4.461 5.136-4.461" fill="#fff"/>
</g>
<g transform="translate(371.33 360.14)">
<path d="m0 0c3.138 0 5.446 2.257 5.446 5.42v8.766h-1.737v-8.636c0-2.309-1.556-3.837-3.709-3.837-2.179 0-3.708 1.528-3.708 3.837v8.636h-1.764v-8.766c0-3.163 2.334-5.42 5.472-5.42" fill="#fff"/>
</g>
<g transform="translate(389.85 374.33)">
<path d="m0 0v-10.763l-7.806 10.763h-1.582v-13.952h1.712v10.866l7.936-10.866h1.478v13.952z" fill="#fff"/>
</g>
<path d="m395.4 360.38h1.764v13.952h-1.764z" fill="#fff"/>
<g transform="translate(409.73 374.33)">
<path d="m0 0h-10.218v-1.659h4.253v-12.293h1.737v12.293h4.228z" fill="#fff"/>
</g>
<path d="m412.1 360.38h1.763v13.952h-1.763z" fill="#fff"/>
<g transform="translate(427.08 374.33)">
<path d="m0 0v-10.763l-7.806 10.763h-1.582v-13.952h1.712v10.866l7.935-10.866h1.479v13.952z" fill="#fff"/>
</g>
<g transform="translate(438.26 367.28)">
<path d="m0 0v-1.634h5.576c-0.518-2.282-2.515-3.785-5.057-3.785-3.165 0-5.317 2.255-5.317 5.471s2.205 5.472 5.317 5.472c2.334 0 4.331-1.323 4.927-3.372h1.816c-0.623 3.009-3.449 5.083-6.795 5.083-4.071 0-7.029-3.034-7.029-7.183 0-4.15 2.958-7.184 7.081-7.184 4.02 0 6.872 2.931 6.95 7.132z" fill="#fff"/>
</g>
<g transform="translate(459.43 367.28)">
<path d="m0 0v-1.634h5.576c-0.517-2.282-2.515-3.785-5.057-3.785-3.165 0-5.315 2.255-5.315 5.471s2.202 5.472 5.315 5.472c2.335 0 4.331-1.323 4.929-3.372h1.816c-0.623 3.009-3.45 5.083-6.797 5.083-4.072 0-7.027-3.034-7.027-7.183 0-4.15 2.955-7.184 7.079-7.184 4.021 0 6.873 2.931 6.951 7.132z" fill="#fff"/>
</g>
<g transform="translate(471.49 362.06)">
<path d="m0 0v4.668h5.6v1.608h-5.6v4.305h6.119v1.686h-7.884v-13.953h8.118v1.686z" fill="#fff"/>
</g>
<g transform="translate(490.15 374.33)">
<path d="m0 0v-10.763l-7.805 10.763h-1.582v-13.952h1.71v10.866l7.938-10.866h1.476v13.952z" fill="#fff"/>
</g>
<g transform="translate(497.47 362.06)">
<path d="m0 0v4.668h5.6v1.608h-5.6v4.305h6.12v1.686h-7.884v-13.953h8.117v1.686z" fill="#fff"/>
</g>
<g transform="translate(508.51 372.64)">
<path d="m0 0h3.426c1.71 0 2.851-1.089 2.851-2.594 0-1.477-1.141-2.567-2.851-2.567h-3.426zm6.356-12.267h1.971l-3.347 5.654c1.841 0.518 3.086 2.049 3.086 4.019 0 2.464-1.919 4.28-4.537 4.28h-5.291v-13.953h1.762v5.447h3.165z" fill="#fff"/>
</g>
<g transform="translate(524.58 371.92)">
<path d="m0 0 2.725-6.613h-5.395zm4.774-11.541h1.868l-5.837 13.952h-1.634l-5.706-13.952h1.843l1.373 3.319h6.717z" fill="#fff"/>
</g>
<g transform="translate(542.25 374.33)">
<path d="m0 0h-10.217v-1.659h4.252v-12.293h1.737v12.293h4.228z" fill="#fff"/>
</g>
<path d="m544.62 360.38h1.764v13.952h-1.764z" fill="#fff"/>
<g transform="translate(556.56 361.86)">
<path d="m0 0c-3.162 0-5.521 2.358-5.521 5.471 0 3.138 2.359 5.498 5.521 5.498 3.164 0 5.524-2.36 5.524-5.498s-2.36-5.471-5.524-5.471m0-1.713c4.228 0 7.288 3.086 7.288 7.184 0 4.124-3.06 7.21-7.288 7.21s-7.312-3.086-7.312-7.21c0-4.098 3.084-7.184 7.312-7.184" fill="#fff"/>
</g>
<g transform="translate(576.13 374.33)">
<path d="m0 0v-10.763l-7.808 10.763h-1.583v-13.952h1.713v10.866l7.936-10.866h1.478v13.952z" fill="#fff"/>
</g>
<g transform="translate(585.84 360.2)">
<path d="m0 0c2.775 0 4.927 1.503 4.927 4.124 0 2.904-2.464 3.475-4.668 4.02-1.789 0.415-3.396 0.83-3.396 2.334 0 1.348 1.27 2.126 2.982 2.126 1.685 0 2.956-0.881 2.956-2.438h1.736c0 2.517-1.788 4.124-4.667 4.124s-4.747-1.452-4.747-3.864c0-2.801 2.387-3.371 4.54-3.864 1.816-0.441 3.45-0.831 3.45-2.464 0-1.479-1.376-2.385-3.113-2.385-1.946 0-3.347 1.011-3.347 2.748h-1.788c0-2.748 2.074-4.461 5.135-4.461" fill="#fff"/>
</g>
<g transform="translate(232.19 377.28)">
<path d="m0 0-4.917 12.795h-0.097l-4.893-12.795zm-0.339 26.415 17.756-44.041h-10.78l-3.246 8.813h-16.713l-3.246-8.813h-10.78l17.756 44.041z" fill="#fff"/>
</g>
<g transform="translate(291.03 384.32)">
<path d="m0 0v-9.565c-1.133-5.233-3.622-9.19-7.461-11.872-3.827-2.689-8.102-4.03-12.813-4.03-5.947 0-10.998 2.219-15.164 6.676-4.166 4.448-6.25 9.82-6.25 16.12 0 6.409 2.035 11.812 6.105 16.218 4.081 4.419 9.186 6.628 15.309 6.628 7.133 0 12.777-2.513 16.931-7.527l-6.564-7.21c-2.344 3.769-5.608 5.657-9.786 5.657-3.1 0-5.741-1.348-7.921-4.031-2.18-2.688-3.27-5.935-3.27-9.735 0-3.738 1.09-6.937 3.27-9.59 2.18-2.658 4.821-3.981 7.921-3.981 2.549 0 4.772 0.776 6.661 2.331 1.902 1.554 2.858 3.604 2.858 6.166h-10.1v7.745z" fill="#fff"/>
</g>
<g transform="translate(292.7 394.88)">
<path d="m0 0v8.813h30.884v-8.813h-10.44v-35.228h-10.004v35.228z" fill="#fff"/>
</g>
<path d="m344 409.41h3.642v-54.625h-3.642z" fill="#bdc4d0"/>
</g>
<path d="m1231.9 613.36c-2.609-1.068-4.343-3.961-4.343-7.244 0-1.761-0.969-2.835-3.77-4.152-14.878-7.007-33.71-27.615-38.561-42.196-0.894-2.683-1.611-3.274-3.959-3.274-3.382 0-7.038-3.99-7.038-7.689 0-1.341 1.244-3.67 2.768-5.174 2.723-2.696 2.761-2.906 2.449-13.506-0.365-12.223 1.442-23.024 5.539-33.171 1.932-4.782 2.302-6.705 1.451-7.55-1.499-1.485-1.46-5.999 0.068-7.512 0.667-0.66 2.588-1.227 4.28-1.265 2.498-0.057 3.963-1.17 7.892-6 12.15-14.934 31.562-25.82 52.205-29.281 3.069-0.515 3.809-1.12 4.352-3.57 1.321-5.961 8.978-9.268 14.964-6.452 3.08 1.451 6.663 6.381 6.663 9.173 0 0.501 3.281 1.685 7.298 2.635 9.501 2.253 21.584 8.156 30.632 14.972 6.616 4.978 7.592 5.403 11.247 4.915 6.909-0.916 11.133 5.356 8.081 11.999-0.931 2.019-0.678 3.079 1.566 6.606 4.152 6.514 8.302 17.668 10.231 27.505 0.972 4.925 2.398 9.431 3.175 10.008 0.782 0.582 1.261 2.153 1.068 3.494-0.505 3.541-5.504 4.043-6.797 0.678-1.255-3.275-20.104-19.664-21.848-19.001-1.1 0.421-1.384 4.053-1.384 17.755 0 16.457 0.095 17.286 2.138 18.633 4.766 3.135 1.383 10.514-4.319 9.412-2.358-0.459-3.752 0.639-11.558 9.063-6.548 7.068-8.796 10.175-8.575 11.846 0.625 4.72-6.528 5.245-7.523 0.549-0.715-3.393-13.936-11.989-15.718-10.223-0.625 0.62-2.105 1.125-3.296 1.125-1.749 0-3.041 1.857-6.763 9.728-3.378 7.139-4.449 10.48-4.036 12.571 0.639 3.245-1.071 4.92-4.275 4.176-1.374-0.315-3.857 0.965-7.547 3.881-5.035 3.979-5.506 4.705-5.569 8.475-0.077 5.115-3.703 8.704-8.016 8.705-1.031 0-2.101-0.205-3.172-0.644m-45.196-57.692c-1.172 1.164-0.916 2.343 1.672 7.77 6.539 13.707 19.298 27.644 32.23 35.194 6.846 3.999 7.533 4.233 8.397 2.849 0.308-0.491-6.98-9.359-16.189-19.696-20.135-22.615-23.777-26.804-25.156-26.804-0.392 0-0.601 0.337-0.954 0.687m49.198 12.433c-2.301 0.592-2.325 1.427-0.691 22.885 0.552 7.255 0.711 7.494 6.259 9.288 0.177 0.057 3.012-1.938 6.288-4.439 8.091-6.171 7.975-7.345-1.777-18.79-4.257-4.997-7.787-9.173-7.844-9.288-0.013-0.027-0.075-0.04-0.177-0.04-0.346 0-1.153 0.148-2.058 0.384m-45.959-15.597c-0.504 0.491 7.062 9.712 17.612 21.467 10.17 11.335 19.325 21.688 20.339 23.009 2.099 2.735 2.157 2.75 4.664 1.418 1.552-0.821 1.792-1.918 1.457-6.73-1.716-24.822-1.269-22.555-4.761-24.201-2.128-1.003-3.478-2.559-4.084-4.716-1.047-3.713 0.241-3.203-19.244-7.66-7.183-1.642-13.254-2.7-15.286-2.7-0.379 0-0.618 0.036-0.697 0.113m63.546 8.987c-12.346 9e-3 -12.346 9e-3 -13.575 2.629-1.164 2.483-0.808 3.103 6.879 11.961 5.144 5.928 8.833 9.34 10.097 9.34 1.524 0 3.056-2.233 6.567-9.579 3.896-8.156 4.416-9.937 3.478-11.969-1.025-2.234-1.363-2.383-11.954-2.383-0.477 0-0.974 0-1.492 1e-3m20.504-21.22c-7.001 3.618-12.895 6.711-13.101 6.868-0.202 0.158 1.081 2.104 2.854 4.325 2.728 3.417 3.794 4.033 6.961 4.033 4.453 0 6.153 1.422 6.153 5.14 0 2.285 1.144 3.493 6.793 7.207 7.437 4.878 7.898 5.068 8.796 3.627 0.336-0.545-0.13-8.735-1.037-18.204-1.221-12.681-2.057-17.53-3.176-18.398-0.264-0.207-0.596-0.321-1.057-0.321-1.685 0-5.089 1.53-13.186 5.723m18.11-5.837c-1.134 0.721-1.066 3.823 0.423 18.939 1.24 12.561 2.158 18.083 3.007 18.083 0.672 0 5.092-4.028 9.819-8.954 7.803-8.128 8.58-9.292 8.417-12.604-0.167-3.408-0.755-4.029-9.003-9.536-7.413-4.944-9.771-6.446-11.219-6.447-0.536 0-0.947 0.206-1.444 0.519m-41.699 17.984c-9.606 5.078-10.222 5.537-9.318 6.983 0.427 0.682 5.097 1.083 12.586 1.083 9.901 0 12.009-0.262 12.514-1.566 0.774-1.999-0.423-4.157-4.377-7.889l-3.146-2.969zm-58.064-61.119c-0.466 0.477-2.474 11.707-4.468 24.951l-3.627 24.088 3.042 3.017c1.671 1.656 3.041 3.88 3.041 4.944 0 1.647 1.747 2.334 11.822 4.653 6.503 1.503 14.09 3.318 16.856 4.043 6.596 1.723 6.235 1.728 6.938-0.091 0.792-2.037 0.489-2.496-7.361-11.197-6.11-6.777-6.806-7.259-9.765-6.705-8.364 1.551-13.696-7.293-7.879-13.063 2.243-2.22 2.44-2.94 1.577-5.689-0.544-1.733-2.869-9.15-5.161-16.485-2.199-7.044-4.369-12.494-4.951-12.495-0.024 0-0.045 0.01-0.064 0.029m46.329 63.753c1.005 1.203 2.58 0.712 10.174-3.179 8.913-4.562 8.975-4.619 7.216-6.724-5.97-7.135-7.687-8.505-9.469-7.56-0.989 0.525-3.67 0.954-5.96 0.954-3.267 0-4.809-0.63-7.111-2.916-1.619-1.603-2.944-3.598-2.944-4.429 0-1.27-1.186-1.422-7.293-0.949-7.917 0.615-7.913 0.615-9.512 4.362-1.004 2.353-0.499 3.221 6.515 11.168 6.538 7.412 7.864 8.476 9.507 7.608 0.711-0.378 1.674-0.55 2.714-0.55 2.323-1e-3 5.028 0.86 6.163 2.215m19.581-32.325c-5.496 2.553-6.251 3.245-6.322 5.804-0.044 1.598-0.6 3.87-1.239 5.044-1.24 2.295-1.014 2.697 5.418 9.664l2.956 3.198 12.998-6.552c8.609-4.339 13.263-7.265 13.787-8.668 0.678-1.813-0.129-2.744-5.702-6.557-4.662-3.19-8.143-4.721-11.881-4.722-2.945 0-6.048 0.95-10.015 2.789m35.971 8.194c-0.139 0.626 4.358 4.143 9.993 7.81 14.223 9.268 13.902 9.568 13.902-12.692 0-14.886-0.22-17.415-1.523-17.415-1.578 0-21.935 20.283-22.372 22.297m-111.51-23.228c-2.868 10.423-3.132 32.846-0.389 32.846 0.528 0 0.961-0.453 0.961-1.002 0-1.027 5.562-38.807 6.572-44.631 0.409-2.36 0.316-3.382-0.102-3.382-1.133 0-4.649 7.484-7.042 16.169m38.783-2.305c-1.399 2.601-4.285 7.913-6.419 11.803-3.805 6.958-3.843 7.121-2.119 9.726 1.893 2.864 4.141 3.212 12.952 2.014 4.092-0.553 4.665-0.93 4.665-3.054 0-1.337 1.254-3.627 2.781-5.102l2.782-2.678-3.536-8.725c-3.122-7.707-3.829-8.719-6.048-8.719-1.974 5e-3 -3.07 1.031-5.058 4.735m64.712-5.341c-0.946 0.849-0.648 3.322 1.317 11.068 4.16 16.399 4.477 17.454 5.242 17.454 0.403 0 5.427-4.668 11.163-10.372 8.916-8.868 10.339-10.724 9.815-12.79-0.573-2.262-1.46-2.554-13.465-4.439-5.907-0.927-9.605-1.368-11.754-1.368-1.261 0-1.989 0.152-2.318 0.447m-9.646 6.93c-5.058 8.567-4.564 10.772 3.651 16.289 6.126 4.119 9.728 5.321 9.728 3.241 0-1.69-4.972-21.139-6.039-23.62-0.586-1.367-1.207-2.078-1.965-2.078-1.261 0-2.899 1.97-5.375 6.168m-42.644 2.248 3.386 7.875 4.886 0.568c3.849 0.443 5.4 1.202 7.341 3.594l2.46 3.031 6.899-3.098c3.79-1.704 6.743-3.546 6.566-4.095-0.269-0.826-28.694-17.526-32.523-19.111-0.257-0.106-0.485-0.157-0.685-0.158-1.884 0-1.257 4.585 1.67 11.394m-38.436-20.199c-0.658 0.789 0.706 6.63 4.155 17.861 4.963 16.126 5.227 16.694 7.807 16.694 2.373 0 3.41-1.331 9.3-11.96 3.641-6.577 6.207-12.213 5.703-12.524-0.509-0.309-0.928-1.427-0.928-2.472 0-1.451-1.264-2.257-5.279-3.37-13.123-3.623-17.558-4.817-19.371-4.817-0.798 0-1.088 0.231-1.387 0.588m133.08-6.643c-2.949 0.463-3.255 0.94-5.245 8.09-1.95 7.011-1.983 7.736-0.49 9.378 0.894 0.979 1.672 3.145 1.725 4.815 0.085 2.52 1.644 4.391 9.155 10.978 4.982 4.367 9.737 7.813 10.571 7.66 1.127-0.214 1.431-1.403 1.199-4.739-0.462-6.735-3.934-18.58-7.734-26.398-3.95-8.118-5.098-9.933-7.649-9.933-0.458 0-0.96 0.059-1.532 0.149m-99.2 8.342c1.499 0.827 2.859 2.43 3.022 3.552 0.216 1.478 4.717 4.576 16.098 11.106 14.719 8.433 18.979 10.409 18.148 8.418-0.186-0.443-5.317-7.817-11.403-16.389-9.478-13.345-11.381-15.51-13.245-15.067-1.408 0.333-2.946-0.243-4.358-1.642l-2.175-2.157-17.281 3.126c-9.501 1.717-18.408 3.498-19.792 3.952-3.064 1.002-3.011 1.026 11.612 4.815l11.111 2.878 2.772-2.053c1.392-1.028 2.152-1.51 2.962-1.51 0.676 0 1.387 0.337 2.529 0.971m23.396-27.8c-5.905 7.64-6.38 8.634-6.559 13.75-0.191 5.508-0.172 5.545 10.862 21.233 6.082 8.644 11.261 15.522 11.501 15.283 0.245-0.244-0.327-13.149-1.264-28.684-0.941-15.536-1.777-28.306-1.859-28.379-0.081-0.072-1.537-0.43-3.237-0.787-0.56-0.119-1.031-0.2-1.468-0.2-1.845 0-3.094 1.461-7.976 7.784m14.564-7.021c-0.283 0.281 0.159 11.474 0.981 24.87 0.821 13.398 1.498 26.041 1.503 28.098 0 2.057 0.428 3.741 0.942 3.741 0.515 0 2.598-2.716 4.63-6.032 3.354-5.47 3.584-6.3 2.493-8.911-1.003-2.405-0.917-3.364 0.534-5.794 1.711-2.873 1.658-3.15-3.55-18.766-4.49-13.452-6.054-17.408-7.121-17.408-0.144 0-0.28 0.072-0.412 0.202m4.429-1.856c-1.513 0.936-1.124 2.672 4.036 17.988 4.867 14.441 6.072 17.081 8.143 17.84 2.911 1.069 3.963 2.525 3.983 5.513 0.019 2.496 0.278 2.587 13.095 4.663 11.452 1.856 12.764 1.856 13.48 5e-3 0.772-2.006 0.037-2.893-22.492-27.095-14.017-15.057-18.077-19.046-19.768-19.047-0.183 0-0.339 0.047-0.477 0.133m3.095-2.22c0 2.01 42.443 46.687 43.846 46.158 0.747-0.287 1.575-1.265 1.844-2.172 0.264-0.908 1.205-4.196 2.093-7.298l1.612-5.646-2.633-2.611c-2.053-2.034-2.567-3.407-2.328-6.199l0.315-3.589-21.527-9.847c-11.842-5.417-21.911-9.85-22.377-9.85-0.461 0-0.845 0.477-0.845 1.054m-78.939 31.935c0.226 0.367 5.063-0.177 10.752-1.208 5.683-1.031 14.445-2.605 19.47-3.494 8.507-1.508 9.208-1.818 10.227-4.482 0.908-2.395 1.658-2.858 4.597-2.858 3.249 0 4.007-0.668 10.329-9.082 5.04-6.716 6.577-9.465 5.885-10.548-0.514-0.812-1.297-1.48-1.743-1.485-1e-3 0 0 0 0 0-1.591 0-59.927 32.493-59.515 33.157m56.553-37.514c-1.245 0.276-5.352 1.184-9.129 2.019-8.68 1.913-20.175 7.158-28.304 12.909-6.169 4.363-19.667 17.865-19.667 19.674 0 0.502 3.074-0.787 6.836-2.863 3.762-2.077 17.106-9.384 29.654-16.242 16.285-8.896 22.828-12.972 22.848-14.232 0.014-0.982-0.297-1.41-1.156-1.41-0.294 0-0.651 0.05-1.082 0.145m24.09 1.441c-0.714 0.711 3.637 3.212 13.971 8.028 8.258 3.851 18.183 8.547 22.06 10.442 8.271 4.048 9.539 4.315 6.946 1.452-3.416-3.766-14.129-10.815-21.699-14.276-7.683-3.516-16.12-6.021-19.692-6.021-0.781 0-1.329 0.12-1.586 0.375m2.393 162.71c-1.667-1.021-0.696-4.033 1.298-4.033 0.787 0 1.68 0.64 1.983 1.423 0.579 1.492-0.718 2.932-2.153 2.932-0.377 0-0.763-0.099-1.128-0.322m29.592-13.039c-0.389-0.631-0.235-1.613 0.341-2.186 1.355-1.342 4.508-0.172 3.952 1.47-0.33 0.99-1.47 1.558-2.527 1.558-0.722 0-1.405-0.265-1.766-0.842m-28.453-5.155c-2.532-2.506-0.649-6.782 2.983-6.782 0.976 0 2.257 0.897 2.849 1.99 1.619 3-0.63 5.951-3.207 5.951-0.884 1e-3 -1.807-0.347-2.625-1.159m42.059-13.764c0-1.332 0.666-1.995 2.012-1.995 1.34 0 2.008 0.663 2.008 1.995 0 1.327-0.668 1.995-2.008 1.995-1.346 0-2.012-0.668-2.012-1.995m30.384-19.153c-2.864-2.835-0.063-7.503 3.776-6.295 1.435 0.448 2.061 1.503 2.061 3.465 0 2.453-1.525 3.994-3.275 3.995-0.851 0-1.755-0.365-2.562-1.165" fill="url(#c)"/>
<g clip-path="url(#e)">
<g transform="translate(1231.5 393)">
<path d="m0 0h-3.889v4.708h3.915c1.403 0 2.488-1.005 2.488-2.354s-1.085-2.354-2.514-2.354m2.143 8.597c0-1.191-0.926-2.143-2.222-2.143h-3.81v4.285h3.81c1.243 0 2.222-0.952 2.222-2.142m0.079-2.963c1.058 0.635 1.746 1.93 1.746 3.201 0 2.063-1.693 3.65-3.994 3.65h-5.634v-14.231h5.686c2.46 0 4.312 1.72 4.312 3.889 0 1.586-0.793 2.909-2.116 3.491" fill="#3d4f6b"/>
</g>
<g transform="translate(1240.7 403.76)">
<path d="m0 0h3.492c1.745 0 2.909-1.111 2.909-2.646 0-1.507-1.164-2.618-2.909-2.618h-3.492zm6.481-12.512h2.01l-3.412 5.767c1.878 0.529 3.148 2.09 3.148 4.099 0 2.514-1.957 4.366-4.629 4.366h-5.397v-14.232h1.799v5.555h3.228z" fill="#3d4f6b"/>
</g>
<path d="m1252 391.25h1.799v14.231h-1.799z" fill="#3d4f6b"/>
<g transform="translate(1262.4 392.92)">
<path d="m0 0h-2.884v10.872h2.884c3.2 0 5.449-2.302 5.449-5.423 0-3.147-2.249-5.449-5.449-5.449m0.053 12.565h-4.736v-14.231h4.736c4.178 0 7.22 2.989 7.22 7.115 0 4.101-3.042 7.09-7.22 7.09z" fill="#3d4f6b"/>
</g>
<g transform="translate(1278.4 398.29)">
<path d="m0 0v-1.666h5.687c-0.53-2.328-2.566-3.862-5.159-3.862-3.226 0-5.423 2.301-5.423 5.581s2.249 5.582 5.423 5.582c2.381 0 4.418-1.35 5.027-3.44h1.851c-0.635 3.069-3.518 5.185-6.93 5.185-4.154 0-7.168-3.095-7.168-7.327s3.014-7.327 7.22-7.327c4.101 0 7.01 2.989 7.089 7.274z" fill="#3d4f6b"/>
</g>
<path d="m1288.9 391.25h1.799v14.231h-1.799z" fill="#3d4f6b"/>
<g transform="translate(1304.2 405.48)">
<path d="m0 0v-10.978l-7.962 10.978h-1.614v-14.231h1.746v11.083l8.095-11.083h1.507v14.231z" fill="#3d4f6b"/>
</g>
<g transform="translate(1315.6 398.29)">
<path d="m0 0v-1.666h5.687c-0.53-2.328-2.568-3.862-5.161-3.862-3.227 0-5.421 2.301-5.421 5.581s2.249 5.582 5.421 5.582c2.382 0 4.417-1.35 5.028-3.44h1.852c-0.635 3.069-3.518 5.185-6.932 5.185-4.153 0-7.168-3.095-7.168-7.327s3.015-7.327 7.22-7.327c4.102 0 7.01 2.989 7.09 7.274z" fill="#3d4f6b"/>
</g>
<path d="m1331.4 391.25h1.8v14.231h-1.8z" fill="#3d4f6b"/>
<g transform="translate(1346.7 405.48)">
<path d="m0 0v-10.978l-7.961 10.978h-1.613v-14.231h1.746v11.083l8.094-11.083h1.508v14.231z" fill="#3d4f6b"/>
</g>
<g transform="translate(1361.9 405.48)">
<path d="m0 0v-10.978l-7.964 10.978h-1.613v-14.231h1.747v11.083l8.094-11.083h1.507v14.231z" fill="#3d4f6b"/>
</g>
<g transform="translate(1374.1 392.76)">
<path d="m0 0c-3.226 0-5.635 2.407-5.635 5.581 0 3.201 2.409 5.608 5.635 5.608 3.228 0 5.634-2.407 5.634-5.608 0-3.2-2.406-5.581-5.634-5.581m0-1.746c4.312 0 7.434 3.148 7.434 7.327 0 4.206-3.122 7.354-7.434 7.354s-7.459-3.148-7.459-7.354c0-4.179 3.147-7.327 7.459-7.327" fill="#3d4f6b"/>
</g>
<g transform="translate(1394 405.48)">
<path d="m0 0-4.525-11.56-4.603 11.56h-1.958l5.742-14.231h1.64l5.661 14.231z" fill="#3d4f6b"/>
</g>
<g transform="translate(1403.4 403.02)">
<path d="m0 0 2.778-6.744h-5.504zm4.866-11.771h1.905l-5.951 14.232h-1.666l-5.82-14.232h1.877l1.403 3.386h6.852z" fill="#3d4f6b"/>
</g>
<g transform="translate(1421.5 405.48)">
<path d="m0 0h-10.423v-1.693h4.34v-12.538h1.771v12.538h4.312z" fill="#3d4f6b"/>
</g>
<path d="m1423.9 391.25h1.8v14.231h-1.8z" fill="#3d4f6b"/>
<g transform="translate(1436.1 392.76)">
<path d="m0 0c-3.228 0-5.634 2.407-5.634 5.581 0 3.201 2.406 5.608 5.634 5.608s5.635-2.407 5.635-5.608c0-3.2-2.407-5.581-5.635-5.581m0-1.746c4.312 0 7.435 3.148 7.435 7.327 0 4.206-3.123 7.354-7.435 7.354s-7.458-3.148-7.458-7.354c0-4.179 3.146-7.327 7.458-7.327" fill="#3d4f6b"/>
</g>
<g transform="translate(1456 405.48)">
<path d="m0 0v-10.978l-7.963 10.978h-1.614v-14.231h1.747v11.083l8.094-11.083h1.507v14.231z" fill="#3d4f6b"/>
</g>
<g transform="translate(1465.9 391.07)">
<path d="m0 0c2.831 0 5.026 1.534 5.026 4.205 0 2.963-2.511 3.545-4.76 4.101-1.828 0.423-3.466 0.845-3.466 2.38 0 1.376 1.295 2.169 3.042 2.169 1.719 0 3.016-0.9 3.016-2.486h1.772c0 2.566-1.827 4.205-4.761 4.205-2.936 0-4.841-1.481-4.841-3.941 0-2.857 2.432-3.439 4.628-3.942 1.852-0.449 3.519-0.845 3.519-2.512 0-1.508-1.404-2.434-3.175-2.434-1.982 0-3.411 1.032-3.411 2.804h-1.827c0-2.804 2.118-4.549 5.238-4.549" fill="#3d4f6b"/>
</g>
<g transform="translate(1231.4 360.46)">
<path d="m0 0c3.2 0 5.555 2.301 5.555 5.527v8.942h-1.773v-8.809c0-2.354-1.587-3.916-3.782-3.916-2.222 0-3.782 1.562-3.782 3.916v8.809h-1.799v-8.942c0-3.226 2.38-5.527 5.581-5.527" fill="#3d4f6b"/>
</g>
<g transform="translate(1250.3 374.93)">
<path d="m0 0v-10.978l-7.962 10.978h-1.613v-14.23h1.746v11.082l8.094-11.082h1.507v14.23z" fill="#3d4f6b"/>
</g>
<path d="m1255.9 360.7h1.799v14.23h-1.799z" fill="#3d4f6b"/>
<g transform="translate(1270.5 374.93)">
<path d="m0 0h-10.422v-1.693h4.338v-12.537h1.772v12.537h4.312z" fill="#3d4f6b"/>
</g>
<path d="m1273 360.7h1.799v14.23h-1.799z" fill="#3d4f6b"/>
<g transform="translate(1288.2 374.93)">
<path d="m0 0v-10.978l-7.962 10.978h-1.613v-14.23h1.745v11.082l8.095-11.082h1.507v14.23z" fill="#3d4f6b"/>
</g>
<g transform="translate(1299.6 367.74)">
<path d="m0 0v-1.666h5.687c-0.529-2.328-2.566-3.863-5.159-3.863-3.226 0-5.422 2.302-5.422 5.582s2.248 5.582 5.422 5.582c2.381 0 4.418-1.35 5.027-3.44h1.851c-0.635 3.069-3.518 5.185-6.93 5.185-4.153 0-7.168-3.095-7.168-7.327 0-4.233 3.015-7.326 7.22-7.326 4.101 0 7.01 2.988 7.09 7.273z" fill="#3d4f6b"/>
</g>
<g transform="translate(1321.2 367.74)">
<path d="m0 0v-1.666h5.687c-0.527-2.328-2.565-3.863-5.157-3.863-3.227 0-5.421 2.302-5.421 5.582s2.246 5.582 5.421 5.582c2.381 0 4.417-1.35 5.027-3.44h1.852c-0.635 3.069-3.518 5.185-6.931 5.185-4.155 0-7.168-3.095-7.168-7.327 0-4.233 3.013-7.326 7.22-7.326 4.101 0 7.009 2.988 7.09 7.273z" fill="#3d4f6b"/>
</g>
<g transform="translate(1333.5 362.42)">
<path d="m0 0v4.761h5.712v1.64h-5.712v4.391h6.241v1.72h-8.041v-14.231h8.279v1.719z" fill="#3d4f6b"/>
</g>
<g transform="translate(1352.6 374.93)">
<path d="m0 0v-10.978l-7.96 10.978h-1.614v-14.23h1.744v11.082l8.097-11.082h1.505v14.23z" fill="#3d4f6b"/>
</g>
<g transform="translate(1360 362.42)">
<path d="m0 0v4.761h5.712v1.64h-5.712v4.391h6.241v1.72h-8.041v-14.231h8.279v1.719z" fill="#3d4f6b"/>
</g>
<g transform="translate(1371.3 373.21)">
<path d="m0 0h3.493c1.745 0 2.909-1.111 2.909-2.646 0-1.507-1.164-2.618-2.909-2.618h-3.493zm6.482-12.511h2.011l-3.413 5.766c1.877 0.529 3.147 2.09 3.147 4.099 0 2.513-1.957 4.366-4.628 4.366h-5.396v-14.231h1.797v5.554h3.228z" fill="#3d4f6b"/>
</g>
<g transform="translate(1387.7 372.47)">
<path d="m0 0 2.778-6.745h-5.501zm4.869-11.771h1.905l-5.953 14.231h-1.667l-5.819-14.231h1.879l1.4 3.385h6.852z" fill="#3d4f6b"/>
</g>
<g transform="translate(1405.7 374.93)">
<path d="m0 0h-10.42v-1.693h4.336v-12.537h1.772v12.537h4.312z" fill="#3d4f6b"/>
</g>
<path d="m1408.1 360.7h1.799v14.23h-1.799z" fill="#3d4f6b"/>
<g transform="translate(1420.3 362.21)">
<path d="m0 0c-3.225 0-5.632 2.406-5.632 5.58 0 3.201 2.407 5.608 5.632 5.608 3.228 0 5.634-2.407 5.634-5.608 0-3.2-2.406-5.58-5.634-5.58m0-1.746c4.312 0 7.434 3.147 7.434 7.326 0 4.206-3.122 7.354-7.434 7.354s-7.459-3.148-7.459-7.354c0-4.179 3.147-7.326 7.459-7.326" fill="#3d4f6b"/>
</g>
<g transform="translate(1440.3 374.93)">
<path d="m0 0v-10.978l-7.963 10.978h-1.614v-14.23h1.747v11.082l8.094-11.082h1.508v14.23z" fill="#3d4f6b"/>
</g>
<g transform="translate(1450.2 360.52)">
<path d="m0 0c2.831 0 5.024 1.533 5.024 4.205 0 2.963-2.512 3.545-4.76 4.101-1.826 0.423-3.464 0.846-3.464 2.381 0 1.375 1.295 2.168 3.042 2.168 1.719 0 3.014-0.899 3.014-2.486h1.772c0 2.566-1.824 4.205-4.761 4.205-2.936 0-4.842-1.481-4.842-3.941 0-2.857 2.435-3.439 4.631-3.941 1.852-0.45 3.519-0.846 3.519-2.513 0-1.508-1.404-2.433-3.175-2.433-1.985 0-3.413 1.031-3.413 2.803h-1.824c0-2.803 2.115-4.549 5.237-4.549" fill="#3d4f6b"/>
</g>
<g transform="translate(1089.5 377.94)">
<path d="m0 0-5.016 13.05h-0.098l-4.991-13.05zm-0.346 26.941 18.11-44.92h-10.994l-3.311 8.99h-17.048l-3.31-8.99h-10.995l18.11 44.92z" fill="#3d4f6b"/>
</g>
<g transform="translate(1149.5 385.12)">
<path d="m0 0v-9.756c-1.155-5.337-3.693-9.373-7.609-12.109-3.904-2.741-8.265-4.11-13.07-4.11-6.065 0-11.217 2.264-15.466 6.809-4.25 4.538-6.374 10.017-6.374 16.442 0 6.537 2.076 12.047 6.226 16.541 4.163 4.507 9.37 6.76 15.614 6.76 7.276 0 13.033-2.562 17.27-7.676l-6.695-7.354c-2.391 3.845-5.72 5.769-9.982 5.769-3.162 0-5.855-1.374-8.079-4.11-2.224-2.742-3.335-6.055-3.335-9.93 0-3.813 1.111-7.076 3.335-9.781 2.224-2.712 4.917-4.06 8.079-4.06 2.601 0 4.867 0.792 6.794 2.377 1.939 1.584 2.916 3.676 2.916 6.289h-10.303v7.899z" fill="#3d4f6b"/>
</g>
<g transform="translate(1151.2 395.89)">
<path d="m0 0v8.989h31.5v-8.989h-10.648v-35.931h-10.204v35.931z" fill="#3d4f6b"/>
</g>
<path d="m1203.5 410.72h3.715v-55.715h-3.715z" fill="#bdc4d0"/>
<path d="m1543.3 203h-554v554h554z" fill="none" stroke="#9aa5b5" stroke-miterlimit="10"/>
</g>
</g>
</svg>
