<?xml version="1.0" encoding="UTF-8"?>
<svg version="1.1" viewBox="0 0 1333.3 1333.3" xmlns="http://www.w3.org/2000/svg">
<defs>
<linearGradient id="a" x2="1" gradientTransform="matrix(189.06 210.27 -210.27 189.06 394.63 491.44)" gradientUnits="userSpaceOnUse">
<stop stop-color="#016f78" offset="0"/>
<stop stop-color="#009aa6" offset=".45425"/>
<stop stop-color="#04cad9" offset="1"/>
</linearGradient>
<clipPath id="b">
<path d="m0 1e3h1e3v-1e3h-1e3z"/>
</clipPath>
</defs>
<g transform="matrix(1.3333 0 0 -1.3333 0 1333.3)">
<path d="m445.61 769.42c-4.588-1.88-7.638-6.967-7.638-12.743 0-3.097-1.707-4.985-6.632-7.302-26.167-12.323-59.288-48.569-67.822-74.213-1.57-4.718-2.829-5.759-6.961-5.759-5.948 0-12.378-7.018-12.378-13.523 0-2.359 2.188-6.455 4.866-9.099 4.791-4.742 4.858-5.112 4.309-23.756-0.641-21.497 2.535-40.493 9.742-58.339 3.397-8.411 4.047-11.794 2.552-13.28-2.637-2.61-2.569-10.551 0.118-13.212 1.175-1.158 4.553-2.157 7.528-2.225 4.394-0.1 6.97-2.056 13.883-10.551 21.366-26.265 55.51-45.412 91.815-51.498 5.399-0.907 6.7-1.973 7.655-6.279 2.323-10.485 15.792-16.302 26.319-11.349 5.416 2.552 11.719 11.222 11.719 16.134 0 0.881 5.77 2.963 12.834 4.634 16.713 3.962 37.962 14.345 53.877 26.331 11.636 8.755 13.353 9.503 19.78 8.647 12.151-1.611 19.58 9.418 14.213 21.103-1.638 3.55-1.192 5.413 2.754 11.617 7.301 11.458 14.602 31.075 17.996 48.376 1.709 8.662 4.216 16.587 5.583 17.603 1.374 1.023 2.216 3.785 1.877 6.144-0.887 6.228-9.68 7.11-11.954 1.192-2.207-5.758-35.36-34.585-38.427-33.417-1.934 0.739-2.433 7.127-2.433 31.226 0 28.943 0.169 30.403 3.761 32.771 8.382 5.515 2.432 18.492-7.597 16.554-4.15-0.807-6.598 1.124-20.328 15.94-11.515 12.431-15.47 17.896-15.081 20.835 1.098 8.301-11.482 9.225-13.231 0.964-1.259-5.968-24.511-21.086-27.646-17.98-1.098 1.091-3.701 1.981-5.795 1.981-3.077 0-5.349 3.266-11.898 17.107-5.939 12.558-7.823 18.434-7.097 22.111 1.124 5.708-1.884 8.654-7.519 7.344-2.417-0.553-6.785 1.696-13.274 6.825-8.855 7-9.682 8.277-9.792 14.908-0.137 8.996-6.515 15.309-14.101 15.31-1.813 0-3.694-0.361-5.577-1.132m-79.489-101.47c-2.061 2.048-1.614 4.122 2.94 13.665 11.5 24.109 33.94 48.62 56.685 61.9 12.04 7.034 13.248 7.445 14.769 5.011 0.541-0.864-12.277-16.461-28.473-34.643-35.415-39.774-41.819-47.141-44.244-47.142-0.689 0-1.056 0.594-1.677 1.209m86.527 21.867c-4.047 1.04-4.09 2.51-1.216 40.25 0.971 12.759 1.25 13.179 11.009 16.335 0.312 0.101 5.297-3.408 11.059-7.807 14.228-10.853 14.026-12.918-3.126-33.048-7.485-8.788-13.696-16.133-13.798-16.334-0.021-0.048-0.129-0.07-0.309-0.07-0.607-1e-3 -2.027 0.259-3.619 0.674m-80.833-27.433c-0.886 0.865 12.421 17.083 30.975 37.758 17.887 19.936 33.99 38.143 35.774 40.468 3.692 4.81 3.793 4.835 8.203 2.493 2.73-1.443 3.152-3.374 2.56-11.836-3.016-43.658-2.23-39.671-8.373-42.567-3.742-1.762-6.116-4.499-7.181-8.293-1.842-6.53 0.422-5.633-33.847-13.472-12.637-2.888-23.316-4.749-26.888-4.75-0.665 0-1.083 0.065-1.223 0.199m111.76 15.807c-21.714 0.017-21.714 0.017-23.877 4.625-2.045 4.366-1.42 5.457 12.1 21.037 9.048 10.424 15.537 16.426 17.759 16.426 2.678 0 5.373-3.928 11.55-16.847 6.852-14.345 7.765-17.477 6.116-21.053-1.803-3.929-2.399-4.189-21.057-4.189-0.827 0-1.69 0-2.591 1e-3m36.06-37.32c-12.31 6.363-22.677 11.801-23.04 12.079-0.355 0.277 1.901 3.701 5.02 7.605 4.798 6.011 6.674 7.092 12.241 7.092 7.832 0 10.824 2.502 10.824 9.041 0 4.021 2.01 6.145 11.946 12.675 13.08 8.579 13.892 8.915 15.471 6.38 0.592-0.956-0.228-15.361-1.825-32.015-2.146-22.304-3.617-30.831-5.584-32.36-0.465-0.362-1.05-0.564-1.861-0.564-2.962 0-8.949 2.692-23.192 10.067m31.853-10.267c-1.993 1.267-1.875 6.724 0.744 33.308 2.18 22.094 3.793 31.806 5.29 31.806 1.182 0 8.956-7.084 17.27-15.748 13.721-14.295 15.09-16.343 14.804-22.169-0.296-5.993-1.329-7.084-15.836-16.771-13.037-8.695-17.184-11.338-19.732-11.338-0.943 0-1.666 0.361-2.54 0.912m-73.337 31.63c-16.899 8.931-17.98 9.737-16.391 12.28 0.751 1.201 8.964 1.906 22.136 1.906 17.414 0 21.122-0.462 22.01-2.753 1.361-3.518-0.743-7.312-7.697-13.876l-5.534-5.222zm-102.12-107.5c-0.82 0.839-4.352 20.59-7.858 43.885l-6.378 42.365 5.347 5.305c2.941 2.913 5.349 6.825 5.349 8.697 0 2.896 3.074 4.104 20.793 8.184 11.44 2.645 24.781 5.834 29.648 7.11 11.601 3.03 10.966 3.038 12.2-0.16 1.394-3.585 0.861-4.39-12.944-19.693-10.747-11.919-11.973-12.767-17.177-11.793-14.71 2.728-24.088-12.826-13.857-22.975 3.946-3.904 4.293-5.171 2.772-10.007-0.955-3.046-5.044-16.091-9.074-28.992-3.87-12.389-7.685-21.975-8.709-21.976-0.042 0-0.08 0.016-0.112 0.05m81.483 112.13c1.765 2.116 4.537 1.251 17.895-5.591 15.673-8.024 15.783-8.125 12.691-11.827-10.502-12.548-13.519-14.958-16.654-13.296-1.74 0.923-6.455 1.679-10.485 1.679-5.746 0-8.457-1.108-12.505-5.129-2.847-2.82-5.179-6.329-5.179-7.789 0-2.233-2.087-2.502-12.826-1.672-13.924 1.084-13.916 1.084-16.729 7.673-1.766 4.138-0.878 5.666 11.457 19.642 11.499 13.037 13.831 14.908 16.721 13.381 1.251-0.665 2.945-0.968 4.773-0.968 4.086 0 8.845 1.514 10.841 3.897m34.438-56.854c-9.666 4.491-10.992 5.709-11.119 10.208-0.075 2.813-1.057 6.808-2.18 8.872-2.179 4.038-1.783 4.743 9.53 16.998l5.197 5.625 22.864-11.525c15.139-7.631 23.328-12.776 24.248-15.244 1.192-3.191-0.228-4.827-10.029-11.534-8.2-5.61-14.322-8.303-20.896-8.304-5.179 0-10.638 1.671-17.615 4.904m63.267 14.414c-0.246 1.099 7.663 7.285 17.574 13.733 25.017 16.301 24.452 16.83 24.452-22.321 0-26.181-0.389-30.63-2.681-30.63-2.776 0-38.576 35.674-39.345 39.218m-196.12-40.856c-5.043 18.334-5.508 57.769-0.684 57.769 0.93 0 1.69-0.797 1.69-1.762 0-1.804 9.784-68.253 11.558-78.494 0.721-4.151 0.557-5.948-0.179-5.949-1.991-1e-3 -8.177 13.162-12.385 28.436m68.21-4.053c-2.459 4.574-7.536 13.917-11.287 20.758-6.692 12.239-6.76 12.524-3.727 17.107 3.329 5.038 7.283 5.651 22.779 3.543 7.199-0.974 8.204-1.637 8.204-5.371 0-2.351 2.205-6.382 4.891-8.974l4.893-4.709-6.218-15.345c-5.492-13.557-6.735-15.337-10.638-15.337-3.472 9e-3 -5.399 1.813-8.897 8.328m113.82-9.394c-1.665 1.494-1.14 5.843 2.315 19.466 7.317 28.843 7.875 30.698 9.218 30.698 0.71 0 9.547-8.209 19.635-18.241 15.68-15.596 18.183-18.862 17.261-22.496-1.006-3.979-2.568-4.49-23.682-7.807-10.388-1.629-16.892-2.405-20.672-2.405-2.218 0-3.497 0.267-4.075 0.785m-16.966 12.189c-8.897 15.067-8.027 18.945 6.421 28.649 10.773 7.245 17.109 9.36 17.109 5.7 0-2.971-8.745-37.179-10.62-41.543-1.03-2.404-2.124-3.655-3.457-3.655-2.219 0-5.099 3.465-9.453 10.849m-75.002 3.954 5.956 13.85 8.592 0.999c6.769 0.78 9.498 2.115 12.911 6.32l4.326 5.331 12.133-5.448c6.666-2.996 11.863-6.237 11.549-7.202-0.473-1.453-50.466-30.823-57.199-33.611-0.452-0.187-0.854-0.278-1.206-0.278-3.313 0-2.21 8.064 2.938 20.039m-67.601-35.525c-1.159 1.385 1.241 11.659 7.308 31.411 8.728 28.364 9.192 29.363 13.729 29.363 4.174 0 6-2.343 16.358-21.036 6.404-11.566 10.917-21.481 10.029-22.026-0.896-0.545-1.631-2.51-1.631-4.349 0-2.551-2.221-3.97-9.285-5.925-23.077-6.372-30.879-8.473-34.068-8.473-1.404 0-1.914 0.407-2.44 1.035m234.06-11.685c-5.186 0.815-5.725 1.654-9.225 14.228-3.43 12.332-3.488 13.607-0.861 16.495 1.572 1.721 2.94 5.532 3.032 8.469 0.15 4.433 2.891 7.723 16.102 19.307 8.763 7.681 17.126 13.741 18.592 13.473 1.982-0.378 2.516-2.468 2.11-8.336-0.813-11.844-6.921-32.678-13.603-46.428-6.947-14.279-8.966-17.469-13.453-17.47-0.805 0-1.688 0.103-2.694 0.262m-174.47 14.673c2.637 1.452 5.027 4.273 5.314 6.246 0.381 2.602 8.297 8.049 28.313 19.533 25.888 14.832 33.382 18.307 31.92 14.807-0.329-0.78-9.352-13.749-20.057-28.826-16.671-23.47-20.017-27.281-23.295-26.5-2.475 0.588-5.179-0.428-7.663-2.888l-3.827-3.793-30.392 5.498c-16.712 3.021-32.376 6.152-34.809 6.95-5.391 1.763-5.299 1.805 20.421 8.47l19.542 5.062 4.876-3.61c2.447-1.81 3.785-2.657 5.209-2.657 1.19 0 2.439 0.592 4.448 1.708m41.147-48.895c-10.384 13.439-11.221 15.184-11.533 24.183-0.338 9.687-0.304 9.754 19.104 37.345 10.695 15.203 19.804 27.299 20.226 26.879 0.431-0.428-0.574-23.126-2.222-50.449-1.656-27.323-3.126-49.786-3.27-49.912-0.143-0.125-2.703-0.755-5.694-1.385-0.984-0.209-1.811-0.353-2.58-0.353-3.247 0-5.443 2.572-14.031 13.692m25.617-12.349c-0.498 0.496 0.279 20.18 1.724 43.742 1.445 23.563 2.637 45.799 2.644 49.417 9e-3 3.618 0.752 6.582 1.657 6.582 0.903 0 4.571-4.777 8.144-10.611 5.899-9.62 6.304-11.08 4.386-15.672-1.766-4.23-1.615-5.918 0.937-10.191 3.008-5.052 2.916-5.539-6.244-33.006-7.897-23.658-10.647-30.617-12.525-30.618-0.253 0-0.49 0.127-0.723 0.357m7.79-3.264c-2.661 1.644-1.977 4.699 7.098 31.637 8.558 25.401 10.679 30.042 14.321 31.377 5.12 1.881 6.969 4.44 7.004 9.696 0.033 4.39 0.49 4.549 23.032 8.2 20.142 3.266 22.451 3.266 23.709 9e-3 1.359-3.526 0.067-5.087-39.559-47.654-24.652-26.482-31.793-33.498-34.766-33.498-0.323 0-0.597 0.083-0.839 0.233m5.441-3.904c0 3.534 74.649 82.112 77.117 81.18 1.316-0.504 2.771-2.225 3.244-3.818 0.463-1.596 2.118-7.38 3.68-12.836l2.834-9.931-4.629-4.591c-3.612-3.576-4.516-5.994-4.092-10.904l0.551-6.312-37.862-17.318c-20.827-9.526-38.536-17.326-39.355-17.326-0.812 0-1.488 0.839-1.488 1.856m-138.84 56.166c0.397 0.646 8.906-0.311 18.91-2.124 9.995-1.814 25.405-4.583 34.243-6.145 14.964-2.653 16.197-3.198 17.988-7.882 1.597-4.214 2.915-5.028 8.086-5.028 5.712 0 7.047-1.176 18.166-15.974 8.863-11.811 11.567-16.647 10.35-18.552-0.904-1.427-2.282-2.601-3.067-2.61h-4e-3c-2.796-2e-3 -105.4 57.149-104.67 58.315m99.463-65.979c-2.189 0.487-9.412 2.082-16.053 3.55-15.268 3.367-35.486 12.592-49.782 22.707-10.849 7.673-34.591 31.419-34.591 34.601 0 0.882 5.408-1.386 12.023-5.037 6.616-3.651 30.087-16.502 52.156-28.565 28.643-15.647 40.15-22.815 40.184-25.032 0.025-1.726-0.522-2.478-2.033-2.478-0.517 0-1.146 0.088-1.904 0.254m42.372 2.535c-1.259 1.251 6.396 5.649 24.57 14.119 14.524 6.774 31.98 15.035 38.799 18.366 14.548 7.118 16.777 7.589 12.217 2.553-6.007-6.623-24.85-19.022-38.165-25.108-13.511-6.185-28.349-10.589-34.631-10.59-1.374 0-2.338 0.211-2.79 0.66m4.207 286.17c-2.931-1.797-1.225-7.094 2.282-7.094 1.386 0 2.957 1.125 3.489 2.502 1.018 2.626-1.263 5.158-3.788 5.158-0.663 0-1.342-0.174-1.983-0.566m52.046-22.933c-0.684-1.108-0.414-2.838 0.601-3.845 2.382-2.359 7.927-0.303 6.951 2.585-0.581 1.741-2.586 2.741-4.445 2.741-1.27 0-2.472-0.466-3.107-1.481m-50.043-9.066c-4.452-4.407-1.141-11.929 5.247-11.929 1.715 0 3.972 1.579 5.01 3.5 2.85 5.276-1.106 10.467-5.639 10.467-1.556 1e-3 -3.178-0.61-4.618-2.038m73.971-24.209c0-2.343 1.174-3.509 3.541-3.509 2.357 0 3.53 1.166 3.53 3.509 0 2.334-1.173 3.508-3.53 3.508-2.367 0-3.541-1.174-3.541-3.508m53.441-33.686c-5.036-4.986-0.111-13.195 6.643-11.072 2.524 0.788 3.623 2.644 3.623 6.094 0 4.315-2.682 7.027-5.76 7.027-1.496 0-3.085-0.64-4.506-2.049" fill="url(#a)"/>
<g clip-path="url(#b)">
<g transform="translate(444.79 381.86)">
<path d="m0 0h-6.839v8.28h6.885c2.466 0 4.374-1.767 4.374-4.14 0-2.372-1.908-4.14-4.42-4.14m3.768 15.119c0-2.094-1.628-3.768-3.908-3.768h-6.699v7.537h6.699c2.187 0 3.908-1.675 3.908-3.769m0.14-5.211c1.861 1.117 3.071 3.397 3.071 5.63 0 3.629-2.978 6.42-7.026 6.42h-9.909v-25.029h10.002c4.327 0 7.583 3.024 7.583 6.839 0 2.792-1.395 5.118-3.721 6.14" fill="#3d4f6b"/>
</g>
<g transform="translate(461.1 400.8)">
<path d="m0 0h6.141c3.071 0 5.117-1.954 5.117-4.652 0-2.653-2.046-4.607-5.117-4.607h-6.141zm11.398-22.006h3.536l-6.002 10.142c3.304 0.93 5.537 3.676 5.537 7.212 0 4.42-3.443 7.675-8.142 7.675h-9.491v-25.029h3.164v9.77h5.676z" fill="#3d4f6b"/>
</g>
<path d="m480.99 378.79h3.164v25.029h-3.164z" fill="#3d4f6b"/>
<g transform="translate(499.26 381.72)">
<path d="m0 0h-5.071v19.121h5.071c5.629 0 9.584-4.048 9.584-9.537 0-5.536-3.955-9.584-9.584-9.584m0.093 22.099h-8.328v-25.03h8.328c7.35 0 12.701 5.257 12.701 12.515 0 7.211-5.351 12.468-12.701 12.468z" fill="#3d4f6b"/>
</g>
<g transform="translate(527.35 391.17)">
<path d="m0 0v-2.931h10.002c-0.931-4.093-4.513-6.792-9.072-6.792-5.676 0-9.537 4.047-9.537 9.816s3.955 9.816 9.537 9.816c4.187 0 7.769-2.372 8.84-6.048h3.255c-1.116 5.398-6.187 9.118-12.188 9.118-7.304 0-12.608-5.442-12.608-12.886 0-7.443 5.304-12.886 12.701-12.886 7.211 0 12.329 5.257 12.468 12.793z" fill="#3d4f6b"/>
</g>
<path d="m545.81 378.79h3.164v25.029h-3.164z" fill="#3d4f6b"/>
<g transform="translate(572.68 403.82)">
<path d="m0 0v-19.307l-14.003 19.307h-2.839v-25.029h3.071v19.493l14.236-19.493h2.652v25.029z" fill="#3d4f6b"/>
</g>
<g transform="translate(592.75 391.17)">
<path d="m0 0v-2.931h10.002c-0.931-4.093-4.515-6.792-9.075-6.792-5.676 0-9.535 4.047-9.535 9.816s3.956 9.816 9.535 9.816c4.189 0 7.769-2.372 8.842-6.048h3.257c-1.117 5.398-6.188 9.118-12.192 9.118-7.303 0-12.606-5.442-12.606-12.886 0-7.443 5.303-12.886 12.699-12.886 7.213 0 12.329 5.257 12.469 12.793z" fill="#3d4f6b"/>
</g>
<path d="m620.63 378.79h3.165v25.029h-3.165z" fill="#3d4f6b"/>
<g transform="translate(647.5 403.82)">
<path d="m0 0v-19.307l-14.002 19.307h-2.838v-25.029h3.072v19.493l14.236-19.493h2.652v25.029z" fill="#3d4f6b"/>
</g>
<g transform="translate(674.31 403.82)">
<path d="m0 0v-19.307l-14.006 19.307h-2.838v-25.029h3.073v19.493l14.234-19.493h2.653v25.029z" fill="#3d4f6b"/>
</g>
<g transform="translate(695.67 381.44)">
<path d="m0 0c-5.672 0-9.909 4.233-9.909 9.815 0 5.63 4.237 9.864 9.909 9.864 5.676 0 9.909-4.234 9.909-9.864 0-5.628-4.233-9.815-9.909-9.815m0-3.07c7.583 0 13.074 5.536 13.074 12.885 0 7.398-5.491 12.934-13.074 12.934s-13.118-5.536-13.118-12.934c0-7.349 5.535-12.885 13.118-12.885" fill="#3d4f6b"/>
</g>
<g transform="translate(730.68 403.82)">
<path d="m0 0-7.959-20.33-8.095 20.33h-3.443l10.1-25.029h2.881l9.958 25.029z" fill="#3d4f6b"/>
</g>
<g transform="translate(747.28 399.49)">
<path d="m0 0 4.887-11.862h-9.68zm8.56-20.702h3.349l-10.465 25.029h-2.931l-10.236-25.029h3.301l2.468 5.955h12.051z" fill="#3d4f6b"/>
</g>
<g transform="translate(778.98 403.82)">
<path d="m0 0h-18.331v-2.978h7.632v-22.051h3.116v22.051h7.583z" fill="#3d4f6b"/>
</g>
<path d="m783.22 378.79h3.165v25.029h-3.165z" fill="#3d4f6b"/>
<g transform="translate(804.65 381.44)">
<path d="m0 0c-5.677 0-9.91 4.233-9.91 9.815 0 5.63 4.233 9.864 9.91 9.864 5.676 0 9.909-4.234 9.909-9.864 0-5.628-4.233-9.815-9.909-9.815m0-3.07c7.583 0 13.074 5.536 13.074 12.885 0 7.398-5.491 12.934-13.074 12.934-7.584 0-13.119-5.536-13.119-12.934 0-7.349 5.535-12.885 13.119-12.885" fill="#3d4f6b"/>
</g>
<g transform="translate(839.75 403.82)">
<path d="m0 0v-19.307l-14.006 19.307h-2.838v-25.029h3.073v19.493l14.234-19.493h2.653v25.029z" fill="#3d4f6b"/>
</g>
<g transform="translate(857.16 378.47)">
<path d="m0 0c4.979 0 8.841 2.698 8.841 7.396 0 5.211-4.418 6.235-8.373 7.212-3.214 0.745-6.096 1.489-6.096 4.187 0 2.419 2.277 3.814 5.35 3.814 3.023 0 5.305-1.582 5.305-4.373h3.117c0 4.513-3.214 7.398-8.374 7.398-5.165 0-8.515-2.606-8.515-6.932 0-5.024 4.277-6.048 8.14-6.932 3.257-0.791 6.188-1.489 6.188-4.42 0-2.652-2.467-4.28-5.583-4.28-3.487 0-5.999 1.815-5.999 4.932h-3.214c0-4.932 3.726-8.002 9.213-8.002" fill="#3d4f6b"/>
</g>
<g transform="translate(444.65 324.64)">
<path d="m0 0c5.629 0 9.77 4.048 9.77 9.724v15.723h-3.117v-15.491c0-4.141-2.792-6.888-6.653-6.888-3.908 0-6.653 2.747-6.653 6.888v15.491h-3.163v-15.723c0-5.676 4.187-9.724 9.816-9.724" fill="#3d4f6b"/>
</g>
<g transform="translate(477.87 350.09)">
<path d="m0 0v-19.307l-14.003 19.307h-2.839v-25.027h3.071v19.491l14.236-19.491h2.652v25.027z" fill="#3d4f6b"/>
</g>
<path d="m487.84 325.06h3.164v25.027h-3.164z" fill="#3d4f6b"/>
<g transform="translate(513.55 350.09)">
<path d="m0 0h-18.331v-2.977h7.63v-22.05h3.117v22.05h7.584z" fill="#3d4f6b"/>
</g>
<path d="m517.79 325.06h3.163v25.027h-3.163z" fill="#3d4f6b"/>
<g transform="translate(544.66 350.09)">
<path d="m0 0v-19.307l-14.003 19.307h-2.838v-25.027h3.07v19.491l14.237-19.491h2.651v25.027z" fill="#3d4f6b"/>
</g>
<g transform="translate(564.72 337.43)">
<path d="m0 0v-2.932h10.003c-0.931-4.093-4.513-6.794-9.072-6.794-5.676 0-9.537 4.05-9.537 9.819 0 5.768 3.954 9.816 9.537 9.816 4.187 0 7.769-2.373 8.839-6.048h3.256c-1.116 5.397-6.187 9.118-12.188 9.118-7.304 0-12.609-5.443-12.609-12.886 0-7.445 5.305-12.887 12.702-12.887 7.211 0 12.328 5.257 12.468 12.794z" fill="#3d4f6b"/>
</g>
<g transform="translate(602.7 337.43)">
<path d="m0 0v-2.932h10.002c-0.927-4.093-4.511-6.794-9.07-6.794-5.677 0-9.535 4.05-9.535 9.819 0 5.768 3.951 9.816 9.535 9.816 4.188 0 7.768-2.373 8.84-6.048h3.258c-1.116 5.397-6.188 9.118-12.191 9.118-7.306 0-12.607-5.443-12.607-12.886 0-7.445 5.301-12.887 12.7-12.887 7.212 0 12.328 5.257 12.469 12.794z" fill="#3d4f6b"/>
</g>
<g transform="translate(624.32 328.08)">
<path d="m0 0v8.373h10.046v2.885h-10.046v7.722h10.978v3.024h-14.143v-25.027h14.561v3.023z" fill="#3d4f6b"/>
</g>
<g transform="translate(657.81 350.09)">
<path d="m0 0v-19.307l-14.001 19.307h-2.838v-25.027h3.068v19.491l14.239-19.491h2.648v25.027z" fill="#3d4f6b"/>
</g>
<g transform="translate(670.94 328.08)">
<path d="m0 0v8.373h10.046v2.885h-10.046v7.722h10.978v3.024h-14.143v-25.027h14.562v3.023z" fill="#3d4f6b"/>
</g>
<g transform="translate(690.75 347.06)">
<path d="m0 0h6.145c3.067 0 5.115-1.954 5.115-4.652 0-2.652-2.048-4.606-5.115-4.606h-6.145zm11.401-22.004h3.537l-6.004 10.141c3.301 0.93 5.535 3.675 5.535 7.211 0 4.42-3.443 7.675-8.139 7.675h-9.49v-25.027h3.16v9.769h5.677z" fill="#3d4f6b"/>
</g>
<g transform="translate(719.57 345.76)">
<path d="m0 0 4.886-11.863h-9.675zm8.563-20.701h3.35l-10.47 25.027h-2.93l-10.237-25.027h3.306l2.463 5.953h12.051z" fill="#3d4f6b"/>
</g>
<g transform="translate(751.27 350.09)">
<path d="m0 0h-18.327v-2.977h7.627v-22.05h3.116v22.05h7.584z" fill="#3d4f6b"/>
</g>
<path d="m755.51 325.06h3.165v25.027h-3.165z" fill="#3d4f6b"/>
<g transform="translate(776.94 327.71)">
<path d="m0 0c-5.672 0-9.905 4.231-9.905 9.814 0 5.629 4.233 9.864 9.905 9.864 5.677 0 9.909-4.235 9.909-9.864 0-5.628-4.232-9.814-9.909-9.814m0-3.072c7.583 0 13.074 5.536 13.074 12.886 0 7.397-5.491 12.934-13.074 12.934s-13.118-5.537-13.118-12.934c0-7.35 5.535-12.886 13.118-12.886" fill="#3d4f6b"/>
</g>
<g transform="translate(812.05 350.09)">
<path d="m0 0v-19.307l-14.006 19.307h-2.838v-25.027h3.072v19.491l14.235-19.491h2.653v25.027z" fill="#3d4f6b"/>
</g>
<g transform="translate(829.46 324.73)">
<path d="m0 0c4.979 0 8.837 2.697 8.837 7.397 0 5.211-4.418 6.235-8.373 7.211-3.209 0.745-6.092 1.49-6.092 4.188 0 2.419 2.278 3.814 5.351 3.814 3.023 0 5.3-1.582 5.3-4.373h3.117c0 4.513-3.209 7.397-8.373 7.397-5.165 0-8.515-2.605-8.515-6.932 0-5.024 4.281-6.048 8.144-6.931 3.257-0.792 6.188-1.489 6.188-4.42 0-2.652-2.468-4.279-5.584-4.279-3.491 0-6.003 1.814-6.003 4.93h-3.209c0-4.93 3.722-8.002 9.212-8.002" fill="#3d4f6b"/>
</g>
<g transform="translate(195.06 355.37)">
<path d="m0 0-8.821 22.952h-0.174l-8.777-22.952zm-0.608 47.385 31.851-79.004h-19.337l-5.823 15.809h-29.982l-5.822-15.809h-19.337l31.851 79.004z" fill="#3d4f6b"/>
</g>
<g transform="translate(300.6 368)">
<path d="m0 0v-17.159c-2.031-9.385-6.496-16.485-13.383-21.297-6.866-4.822-14.535-7.228-22.986-7.228-10.668 0-19.728 3.982-27.201 11.976-7.474 7.98-11.211 17.616-11.211 28.918 0 11.497 3.65 21.187 10.95 29.092 7.322 7.927 16.479 11.889 27.462 11.889 12.797 0 22.921-4.506 30.373-13.501l-11.775-12.934c-4.205 6.762-10.06 10.147-17.556 10.147-5.561 0-10.298-2.417-14.208-7.229-3.911-4.823-5.866-10.649-5.866-17.464 0-6.707 1.955-12.445 5.866-17.203 3.91-4.769 8.647-7.143 14.208-7.143 4.574 0 8.561 1.394 11.95 4.181 3.411 2.788 5.127 6.468 5.127 11.062h-18.119v13.893z" fill="#3d4f6b"/>
</g>
<g transform="translate(303.6 386.95)">
<path d="m0 0v15.81h55.402v-15.81h-18.729v-63.194h-17.945v63.194z" fill="#3d4f6b"/>
</g>
<path d="m395.64 413.02h6.533v-97.991h-6.533z" fill="#bdc4d0"/>
</g>
</g>
</svg>
