<?xml version="1.0" encoding="UTF-8" standalone="no"?>
<svg
   xmlns:dc="http://purl.org/dc/elements/1.1/"
   xmlns:cc="http://creativecommons.org/ns#"
   xmlns:rdf="http://www.w3.org/1999/02/22-rdf-syntax-ns#"
   xmlns:svg="http://www.w3.org/2000/svg"
   xmlns="http://www.w3.org/2000/svg"
   viewBox="0 0 1333.3333 1333.3333"
   height="1333.3333"
   width="1333.3333"
   xml:space="preserve"
   id="svg2"
   version="1.1"><metadata
     id="metadata8"><rdf:RDF><cc:Work
         rdf:about=""><dc:format>image/svg+xml</dc:format><dc:type
           rdf:resource="http://purl.org/dc/dcmitype/StillImage" /></cc:Work></rdf:RDF></metadata><defs
     id="defs6"><linearGradient
       id="linearGradient32"
       spreadMethod="pad"
       gradientTransform="matrix(189.15163,210.37781,-210.37781,189.15163,400.41489,454.21982)"
       gradientUnits="userSpaceOnUse"
       y2="0"
       x2="1"
       y1="0"
       x1="0"><stop
         id="stop26"
         offset="0"
         style="stop-opacity:1;stop-color:#009aa6" /><stop
         id="stop28"
         offset="0.454246"
         style="stop-opacity:1;stop-color:#55b8bd" /><stop
         id="stop30"
         offset="1"
         style="stop-opacity:1;stop-color:#95d8dc" /></linearGradient><clipPath
       id="clipPath42"
       clipPathUnits="userSpaceOnUse"><path
         id="path40"
         d="M 0,1000 H 1000 V 0 H 0 Z" /></clipPath></defs><g
     transform="matrix(1.3333333,0,0,-1.3333333,0,1333.3333)"
     id="g10"><path
       id="path12"
       style="fill:#202123;fill-opacity:1;fill-rule:nonzero;stroke:none"
       d="M 0,0 H 1000 V 999.599 H 0 Z" /><g
       id="g14"><g
         id="g16"><g
           id="g22"><g
             id="g24"><path
               id="path34"
               style="fill:url(#linearGradient32);stroke:none"
               d="m 451.422,732.344 c -4.59,-1.881 -7.641,-6.97 -7.641,-12.748 v 0 c 0,-3.1 -1.708,-4.989 -6.637,-7.307 v 0 C 410.965,699.96 377.827,663.696 369.29,638.039 v 0 c -1.573,-4.72 -2.832,-5.762 -6.966,-5.762 v 0 c -5.951,0 -12.383,-7.021 -12.383,-13.53 v 0 c 0,-2.359 2.188,-6.458 4.869,-9.103 v 0 c 4.792,-4.745 4.86,-5.115 4.311,-23.767 v 0 c -0.643,-21.51 2.536,-40.515 9.746,-58.37 v 0 c 3.398,-8.415 4.05,-11.8 2.553,-13.286 v 0 c -2.637,-2.612 -2.57,-10.557 0.119,-13.219 v 0 c 1.175,-1.159 4.556,-2.158 7.531,-2.226 v 0 c 4.397,-0.1 6.974,-2.057 13.89,-10.557 v 0 c 21.377,-26.279 55.538,-45.435 91.861,-51.524 v 0 c 5.403,-0.907 6.704,-1.973 7.659,-6.282 v 0 c 2.325,-10.489 15.8,-16.31 26.332,-11.354 v 0 c 5.419,2.552 11.725,11.228 11.725,16.141 v 0 c 0,0.882 5.774,2.965 12.841,4.636 v 0 c 16.721,3.965 37.981,14.353 53.904,26.346 v 0 c 11.642,8.76 13.36,9.508 19.789,8.65 v 0 c 12.159,-1.612 19.591,9.423 14.221,21.114 v 0 c -1.638,3.552 -1.192,5.417 2.756,11.623 v 0 c 7.305,11.465 14.608,31.091 18.005,48.401 v 0 c 1.709,8.667 4.217,16.595 5.587,17.611 v 0 c 1.372,1.025 2.217,3.787 1.876,6.148 v 0 c -0.887,6.231 -9.685,7.113 -11.96,1.192 v 0 c -2.207,-5.762 -35.377,-34.601 -38.447,-33.434 v 0 c -1.934,0.739 -2.433,7.13 -2.433,31.242 v 0 c 0,28.957 0.168,30.419 3.762,32.788 v 0 c 8.388,5.518 2.434,18.501 -7.6,16.561 v 0 c -4.152,-0.806 -6.601,1.125 -20.338,15.948 v 0 c -11.523,12.438 -15.478,17.906 -15.089,20.845 v 0 c 1.099,8.306 -11.489,9.231 -13.238,0.966 v 0 c -1.26,-5.971 -24.524,-21.096 -27.66,-17.989 v 0 c -1.098,1.092 -3.702,1.982 -5.798,1.982 v 0 c -3.078,0 -5.352,3.268 -11.903,17.116 v 0 c -5.943,12.564 -7.828,18.443 -7.101,22.121 v 0 c 1.125,5.711 -1.885,8.659 -7.523,7.349 v 0 c -2.418,-0.554 -6.788,1.696 -13.28,6.828 v 0 c -8.86,7.004 -9.688,8.281 -9.798,14.915 v 0 c -0.136,9.002 -6.517,15.317 -14.107,15.317 v 0 c -1.814,10e-4 -3.697,-0.36 -5.581,-1.132 m -79.529,-101.52 c -2.062,2.05 -1.614,4.124 2.942,13.673 v 0 c 11.505,24.121 33.958,48.643 56.714,61.93 v 0 c 12.046,7.038 13.254,7.449 14.776,5.014 v 0 c 0.541,-0.865 -12.283,-16.469 -28.487,-34.661 v 0 c -35.433,-39.794 -41.84,-47.164 -44.266,-47.165 v 0 c -0.69,0 -1.058,0.594 -1.679,1.209 m 86.571,21.879 c -4.049,1.041 -4.091,2.511 -1.217,40.27 v 0 c 0.972,12.766 1.251,13.185 11.014,16.343 v 0 c 0.313,0.101 5.301,-3.41 11.066,-7.811 v 0 c 14.235,-10.859 14.032,-12.925 -3.128,-33.064 v 0 c -7.49,-8.793 -13.703,-16.143 -13.804,-16.343 v 0 c -0.021,-0.048 -0.13,-0.071 -0.309,-0.071 v 0 c -0.608,0 -2.03,0.26 -3.622,0.676 M 377.59,625.256 c -0.886,0.866 12.427,17.091 30.991,37.776 v 0 c 17.896,19.947 34.008,38.162 35.791,40.489 v 0 c 3.695,4.812 3.796,4.837 8.208,2.495 v 0 c 2.731,-1.446 3.153,-3.377 2.562,-11.842 v 0 c -3.018,-43.68 -2.232,-39.691 -8.378,-42.588 v 0 c -3.744,-1.764 -6.119,-4.502 -7.184,-8.298 v 0 c -1.843,-6.534 0.422,-5.635 -33.865,-13.48 v 0 c -12.642,-2.889 -23.326,-4.751 -26.9,-4.751 v 0 c -0.666,0 -1.085,0.065 -1.225,0.199 m 111.822,15.814 c -21.725,0.017 -21.725,0.017 -23.89,4.628 v 0 c -2.045,4.367 -1.42,5.459 12.106,21.046 v 0 c 9.053,10.431 15.545,16.436 17.769,16.436 v 0 c 2.679,0 5.376,-3.93 11.555,-16.855 v 0 c 6.855,-14.353 7.769,-17.486 6.12,-21.064 v 0 c -1.807,-3.937 -2.403,-4.192 -21.147,-4.192 v 0 c -0.804,0 -1.641,0 -2.513,0.001 m 36.078,-37.339 c -12.316,6.366 -22.688,11.808 -23.051,12.085 v 0 c -0.356,0.277 1.901,3.704 5.021,7.609 v 0 c 4.801,6.014 6.678,7.097 12.248,7.097 v 0 c 7.837,0 10.829,2.503 10.829,9.045 v 0 c 0,4.023 2.012,6.148 11.953,12.682 v 0 c 13.085,8.583 13.898,8.919 15.478,6.383 v 0 c 0.592,-0.958 -0.228,-15.37 -1.826,-32.032 v 0 c -2.147,-22.315 -3.618,-30.847 -5.588,-32.376 v 0 c -0.465,-0.363 -1.049,-0.564 -1.86,-0.565 v 0 c -2.964,0 -8.954,2.694 -23.204,10.072 m 31.869,-10.271 c -1.995,1.268 -1.875,6.727 0.744,33.324 v 0 c 2.181,22.105 3.796,31.823 5.293,31.823 v 0 c 1.183,0 8.96,-7.089 17.278,-15.756 v 0 c 13.729,-14.303 15.098,-16.351 14.811,-22.18 v 0 c -0.295,-5.997 -1.328,-7.089 -15.843,-16.78 v 0 C 566.599,595.192 562.449,592.547 559.9,592.547 v 0 c -0.943,0 -1.666,0.362 -2.541,0.913 m -73.375,31.645 c -16.906,8.936 -17.988,9.742 -16.399,12.287 v 0 c 0.752,1.201 8.97,1.906 22.148,1.906 v 0 c 17.422,0 21.133,-0.462 22.021,-2.755 v 0 c 1.361,-3.518 -0.744,-7.314 -7.701,-13.882 v 0 l -5.538,-5.223 z M 381.809,517.555 c -0.82,0.84 -4.353,20.601 -7.862,43.907 v 0 l -6.382,42.387 5.352,5.307 c 2.941,2.915 5.35,6.828 5.35,8.701 v 0 c 0,2.898 3.077,4.107 20.804,8.189 v 0 c 11.446,2.645 24.794,5.837 29.662,7.113 v 0 c 11.607,3.032 10.973,3.04 12.208,-0.159 v 0 c 1.394,-3.587 0.862,-4.392 -12.951,-19.703 v 0 c -10.753,-11.926 -11.978,-12.774 -17.186,-11.799 v 0 c -14.717,2.729 -24.1,-12.834 -13.864,-22.987 v 0 c 3.948,-3.905 4.295,-5.173 2.773,-10.012 v 0 c -0.955,-3.048 -5.047,-16.099 -9.078,-29.008 v 0 c -3.872,-12.394 -7.689,-21.986 -8.713,-21.986 v 0 c -0.043,0 -0.081,0.016 -0.113,0.05 m 81.524,112.186 c 1.767,2.117 4.54,1.252 17.904,-5.593 v 0 c 15.682,-8.03 15.792,-8.13 12.697,-11.834 v 0 c -10.507,-12.555 -13.526,-14.966 -16.661,-13.303 v 0 c -1.742,0.924 -6.459,1.68 -10.491,1.68 v 0 c -5.748,0 -8.462,-1.108 -12.511,-5.131 v 0 c -2.849,-2.822 -5.182,-6.333 -5.182,-7.794 v 0 c 0,-2.234 -2.088,-2.503 -12.832,-1.672 v 0 c -13.931,1.084 -13.922,1.084 -16.737,7.677 v 0 c -1.767,4.14 -0.88,5.669 11.462,19.652 v 0 c 11.506,13.043 13.838,14.916 16.729,13.387 v 0 c 1.252,-0.664 2.948,-0.968 4.777,-0.968 v 0 c 4.088,0 8.848,1.515 10.845,3.899 m 34.456,-56.883 c -9.67,4.494 -10.998,5.711 -11.125,10.213 v 0 c -0.075,2.814 -1.056,6.812 -2.181,8.877 v 0 c -2.181,4.04 -1.783,4.746 9.535,17.007 v 0 l 5.199,5.626 22.875,-11.531 c 15.149,-7.633 23.339,-12.781 24.261,-15.251 v 0 c 1.192,-3.191 -0.228,-4.829 -10.034,-11.539 v 0 c -8.203,-5.613 -14.329,-8.308 -20.906,-8.308 v 0 c -5.182,-10e-4 -10.643,1.671 -17.624,4.906 m 63.299,14.421 c -0.245,1.1 7.667,7.289 17.582,13.739 v 0 c 25.029,16.31 24.464,16.839 24.464,-22.331 v 0 c 0,-26.194 -0.389,-30.645 -2.681,-30.645 v 0 c -2.777,0 -38.596,35.693 -39.365,39.237 M 364.869,546.404 c -5.046,18.342 -5.512,57.797 -0.685,57.797 v 0 c 0.93,0 1.69,-0.797 1.69,-1.763 v 0 c 0,-1.806 9.79,-68.288 11.565,-78.534 v 0 c 0.721,-4.153 0.557,-5.951 -0.179,-5.951 v 0 c -1.993,-10e-4 -8.181,13.168 -12.391,28.451 m 68.243,-4.057 c -2.459,4.578 -7.54,13.924 -11.293,20.769 v 0 c -6.695,12.245 -6.763,12.531 -3.729,17.117 v 0 c 3.331,5.039 7.288,5.652 22.791,3.543 v 0 c 7.203,-0.974 8.208,-1.637 8.208,-5.375 v 0 c 0,-2.351 2.206,-6.383 4.895,-8.977 v 0 l 4.895,-4.712 -6.222,-15.352 c -5.495,-13.564 -6.738,-15.344 -10.643,-15.344 v 0 c -3.474,0.008 -5.402,1.814 -8.902,8.331 m 113.876,-9.398 c -1.665,1.495 -1.142,5.846 2.315,19.476 v 0 c 7.321,28.857 7.879,30.713 9.223,30.713 v 0 c 0.711,0 9.552,-8.214 19.646,-18.249 v 0 c 15.688,-15.605 18.192,-18.872 17.27,-22.509 v 0 c -1.007,-3.98 -2.57,-4.492 -23.695,-7.81 v 0 c -10.394,-1.63 -16.901,-2.406 -20.682,-2.406 v 0 c -2.219,0 -3.499,0.267 -4.077,0.785 m -16.974,12.195 c -8.901,15.075 -8.032,18.955 6.424,28.664 v 0 c 10.778,7.247 17.118,9.364 17.118,5.702 v 0 c 0,-2.973 -8.749,-37.196 -10.626,-41.564 v 0 c -1.031,-2.405 -2.126,-3.656 -3.459,-3.656 v 0 c -2.219,-10e-4 -5.101,3.467 -9.457,10.854 m -75.041,3.956 5.959,13.857 8.597,0.999 c 6.772,0.781 9.501,2.117 12.917,6.324 v 0 l 4.328,5.333 12.139,-5.449 c 6.67,-2.999 11.869,-6.241 11.555,-7.207 v 0 c -0.472,-1.453 -50.491,-30.839 -57.228,-33.627 v 0 c -0.452,-0.187 -0.854,-0.279 -1.206,-0.279 v 0 c -3.314,0 -2.211,8.069 2.939,20.049 m -67.636,-35.543 c -1.157,1.386 1.243,11.666 7.313,31.427 v 0 c 8.733,28.378 9.197,29.378 13.737,29.378 v 0 c 4.176,0 6.001,-2.344 16.365,-21.047 v 0 c 6.407,-11.573 10.923,-21.492 10.034,-22.037 v 0 c -0.896,-0.546 -1.631,-2.511 -1.631,-4.351 v 0 c 0,-2.553 -2.223,-3.972 -9.29,-5.929 v 0 c -23.089,-6.374 -30.894,-8.476 -34.086,-8.476 v 0 c -1.404,0 -1.915,0.406 -2.442,1.035 m 234.181,-11.69 c -5.188,0.814 -5.727,1.654 -9.229,14.235 v 0 c -3.432,12.337 -3.489,13.614 -0.861,16.503 v 0 c 1.572,1.722 2.941,5.535 3.033,8.474 v 0 c 0.152,4.434 2.893,7.727 16.111,19.317 v 0 c 8.765,7.684 17.135,13.747 18.601,13.478 v 0 c 1.983,-0.378 2.517,-2.469 2.111,-8.339 v 0 c -0.813,-11.85 -6.925,-32.695 -13.611,-46.452 v 0 c -6.951,-14.286 -8.969,-17.478 -13.459,-17.478 v 0 c -0.805,0 -1.689,0.102 -2.696,0.262 m -174.559,14.681 c 2.638,1.452 5.03,4.274 5.317,6.248 v 0 c 0.381,2.603 8.301,8.054 28.328,19.543 v 0 c 25.9,14.839 33.399,18.317 31.936,14.814 v 0 c -0.329,-0.78 -9.357,-13.756 -20.068,-28.84 v 0 c -16.679,-23.481 -20.026,-27.295 -23.306,-26.514 v 0 c -2.476,0.588 -5.182,-0.428 -7.667,-2.889 v 0 l -3.829,-3.796 -30.407,5.502 c -16.721,3.023 -32.393,6.155 -34.828,6.953 v 0 c -5.393,1.764 -5.3,1.806 20.432,8.475 v 0 l 19.552,5.064 4.878,-3.612 c 2.448,-1.811 3.787,-2.658 5.211,-2.658 v 0 c 1.191,-10e-4 2.441,0.592 4.451,1.71 m 41.168,-48.922 c -10.389,13.447 -11.226,15.193 -11.539,24.196 v 0 c -0.338,9.692 -0.304,9.76 19.113,37.365 v 0 c 10.701,15.209 19.815,27.312 20.237,26.891 v 0 c 0.431,-0.428 -0.575,-23.137 -2.223,-50.474 v 0 c -1.656,-27.337 -3.128,-49.811 -3.272,-49.937 v 0 c -0.143,-0.126 -2.704,-0.756 -5.697,-1.386 v 0 c -0.985,-0.209 -1.812,-0.353 -2.581,-0.353 v 0 c -3.249,0 -5.445,2.573 -14.038,13.698 m 25.631,-12.354 c -0.499,0.495 0.278,20.19 1.723,43.764 v 0 c 1.447,23.575 2.638,45.822 2.647,49.442 v 0 c 0.007,3.62 0.752,6.584 1.656,6.584 v 0 c 0.906,0 4.573,-4.779 8.15,-10.615 v 0 c 5.9,-9.625 6.305,-11.086 4.386,-15.68 v 0 c -1.766,-4.233 -1.614,-5.921 0.939,-10.196 v 0 c 3.01,-5.055 2.917,-5.543 -6.247,-33.022 v 0 c -7.902,-23.671 -10.653,-30.633 -12.531,-30.633 v 0 c -0.254,0 -0.491,0.126 -0.723,0.356 m 7.793,-3.266 c -2.662,1.645 -1.977,4.703 7.101,31.653 v 0 c 8.562,25.413 10.685,30.057 14.329,31.393 v 0 c 5.122,1.882 6.973,4.443 7.007,9.7 v 0 c 0.033,4.393 0.491,4.552 23.044,8.206 v 0 c 20.153,3.266 22.462,3.266 23.721,0.008 v 0 c 1.36,-3.527 0.067,-5.09 -39.579,-47.678 v 0 C 532.51,458.792 525.366,451.773 522.391,451.773 v 0 c -0.324,0 -0.598,0.083 -0.84,0.233 m 5.444,-3.905 c 0,3.534 74.686,82.152 77.154,81.22 v 0 c 1.317,-0.503 2.774,-2.225 3.247,-3.821 v 0 c 0.463,-1.596 2.12,-7.383 3.683,-12.841 v 0 l 2.835,-9.935 -4.633,-4.594 c -3.613,-3.578 -4.517,-5.997 -4.093,-10.911 v 0 l 0.552,-6.315 -37.881,-17.326 c -20.837,-9.531 -38.556,-17.334 -39.375,-17.334 v 0 c -0.813,0 -1.489,0.84 -1.489,1.857 M 388.09,504.294 c 0.398,0.646 8.91,-0.31 18.919,-2.125 v 0 c 10,-1.814 25.418,-4.585 34.261,-6.148 v 0 c 14.971,-2.653 16.204,-3.199 17.997,-7.885 v 0 c 1.598,-4.216 2.916,-5.031 8.09,-5.031 v 0 c 5.715,0 7.05,-1.177 18.175,-15.983 v 0 c 8.867,-11.817 11.572,-16.653 10.355,-18.56 v 0 c -0.905,-1.428 -2.283,-2.603 -3.069,-2.612 v 0 c -10e-4,0 -0.002,0 -0.003,0 v 0 c -2.798,-0.002 -105.451,57.177 -104.725,58.344 m 99.513,-66.012 c -2.19,0.488 -9.418,2.084 -16.061,3.553 v 0 c -15.276,3.368 -35.505,12.597 -49.807,22.718 v 0 c -10.854,7.675 -34.608,31.435 -34.608,34.618 v 0 c 0,0.882 5.41,-1.386 12.028,-5.039 v 0 c 6.619,-3.654 30.103,-16.511 52.183,-28.58 v 0 c 28.656,-15.655 40.17,-22.827 40.204,-25.044 v 0 c 0.025,-1.728 -0.523,-2.481 -2.036,-2.481 v 0 c -0.516,0 -1.145,0.088 -1.903,0.255 m 42.393,2.537 c -1.259,1.251 6.4,5.652 24.582,14.126 v 0 c 14.532,6.778 31.996,15.041 38.818,18.375 v 0 c 14.556,7.123 16.787,7.593 12.224,2.554 v 0 c -6.009,-6.627 -24.861,-19.031 -38.184,-25.12 v 0 c -13.518,-6.187 -28.363,-10.595 -34.648,-10.595 v 0 c -1.375,0 -2.34,0.211 -2.792,0.66 m 4.21,286.31 c -2.933,-1.797 -1.225,-7.097 2.282,-7.097 v 0 c 1.387,0 2.958,1.125 3.491,2.503 v 0 c 1.018,2.628 -1.263,5.161 -3.789,5.161 v 0 c -0.663,0 -1.343,-0.174 -1.984,-0.567 m 52.072,-22.945 c -0.684,-1.108 -0.414,-2.838 0.6,-3.846 v 0 c 2.384,-2.36 7.932,-0.303 6.955,2.587 v 0 c -0.582,1.741 -2.587,2.742 -4.447,2.742 v 0 c -1.27,0 -2.473,-0.467 -3.108,-1.483 m -50.069,-9.07 c -4.454,-4.409 -1.141,-11.934 5.25,-11.934 v 0 c 1.716,0 3.972,1.58 5.013,3.502 v 0 c 2.851,5.278 -1.108,10.472 -5.643,10.472 v 0 c -1.556,0 -3.18,-0.611 -4.62,-2.04 m 74.009,-24.221 c 0,-2.343 1.174,-3.511 3.541,-3.511 v 0 c 2.359,0 3.534,1.168 3.534,3.511 v 0 c 0,2.335 -1.175,3.511 -3.534,3.511 v 0 c -2.367,0 -3.541,-1.176 -3.541,-3.511 m 53.466,-33.703 c -5.038,-4.989 -0.11,-13.202 6.647,-11.077 v 0 c 2.526,0.789 3.626,2.645 3.626,6.096 v 0 c 0,4.318 -2.684,7.031 -5.763,7.031 v 0 c -1.498,10e-4 -3.088,-0.64 -4.51,-2.05" /></g></g></g></g><g
       id="g36"><g
         clip-path="url(#clipPath42)"
         id="g38"><g
           transform="translate(450.6074,344.5869)"
           id="g44"><path
             id="path46"
             style="fill:#ffffff;fill-opacity:1;fill-rule:nonzero;stroke:none"
             d="M 0,0 H -6.842 V 8.285 H 0.046 C 2.514,8.285 4.422,6.517 4.422,4.143 4.422,1.769 2.514,0 0,0 m 3.771,15.128 c 0,-2.095 -1.63,-3.771 -3.91,-3.771 h -6.703 v 7.54 h 6.703 c 2.187,0 3.91,-1.675 3.91,-3.769 M 3.91,9.914 c 1.862,1.117 3.072,3.398 3.072,5.633 0,3.63 -2.979,6.423 -7.029,6.423 H -9.96 V -3.072 H 0.046 c 4.329,0 7.588,3.025 7.588,6.843 0,2.792 -1.397,5.12 -3.724,6.143" /></g><g
           transform="translate(466.917,363.5312)"
           id="g48"><path
             id="path50"
             style="fill:#ffffff;fill-opacity:1;fill-rule:nonzero;stroke:none"
             d="m 0,0 h 6.145 c 3.071,0 5.119,-1.955 5.119,-4.654 0,-2.654 -2.048,-4.609 -5.119,-4.609 H 0 Z m 11.404,-22.017 h 3.537 l -6.004,10.148 c 3.305,0.931 5.539,3.677 5.539,7.215 0,4.422 -3.445,7.679 -8.145,7.679 H -3.165 V -22.017 H 0 v 9.776 h 5.679 z" /></g><path
           id="path52"
           style="fill:#ffffff;fill-opacity:1;fill-rule:nonzero;stroke:none"
           d="m 486.824,341.515 h 3.165 v 25.042 h -3.165 z" /><g
           transform="translate(505.0967,344.4473)"
           id="g54"><path
             id="path56"
             style="fill:#ffffff;fill-opacity:1;fill-rule:nonzero;stroke:none"
             d="M 0,0 H -5.074 V 19.131 H 0 c 5.632,0 9.588,-4.05 9.588,-9.543 C 9.588,4.05 5.632,0 0,0 M 0.093,22.109 H -8.239 V -2.933 h 8.332 c 7.354,0 12.707,5.26 12.707,12.521 0,7.215 -5.353,12.474 -12.707,12.474 z" /></g><g
           transform="translate(533.208,353.8965)"
           id="g58"><path
             id="path60"
             style="fill:#ffffff;fill-opacity:1;fill-rule:nonzero;stroke:none"
             d="M 0,0 V -2.933 H 10.007 C 9.076,-7.028 5.492,-9.729 0.931,-9.729 c -5.679,0 -9.542,4.05 -9.542,9.822 0,5.771 3.956,9.821 9.542,9.821 4.188,0 7.773,-2.374 8.843,-6.051 h 3.258 c -1.117,5.4 -6.19,9.123 -12.194,9.123 -7.309,0 -12.614,-5.446 -12.614,-12.893 0,-7.447 5.305,-12.893 12.707,-12.893 7.215,0 12.335,5.26 12.474,12.8 z" /></g><path
           id="path62"
           style="fill:#ffffff;fill-opacity:1;fill-rule:nonzero;stroke:none"
           d="m 551.678,341.515 h 3.165 v 25.042 h -3.165 z" /><g
           transform="translate(578.5605,366.5566)"
           id="g64"><path
             id="path66"
             style="fill:#ffffff;fill-opacity:1;fill-rule:nonzero;stroke:none"
             d="M 0,0 V -19.316 L -14.01,0 h -2.84 v -25.042 h 3.073 V -5.539 L 0.466,-25.042 H 3.119 L 3.119,0 Z" /></g><g
           transform="translate(598.6338,353.8965)"
           id="g68"><path
             id="path70"
             style="fill:#ffffff;fill-opacity:1;fill-rule:nonzero;stroke:none"
             d="M 0,0 V -2.933 H 10.007 C 9.075,-7.028 5.489,-9.729 0.928,-9.729 c -5.68,0 -9.541,4.05 -9.541,9.822 0,5.771 3.959,9.821 9.541,9.821 4.19,0 7.772,-2.374 8.845,-6.051 h 3.259 c -1.117,5.4 -6.191,9.123 -12.197,9.123 -7.307,0 -12.613,-5.446 -12.613,-12.893 0,-7.447 5.306,-12.893 12.706,-12.893 7.216,0 12.334,5.26 12.475,12.8 z" /></g><path
           id="path72"
           style="fill:#ffffff;fill-opacity:1;fill-rule:nonzero;stroke:none"
           d="m 626.531,341.515 h 3.166 v 25.042 h -3.166 z" /><g
           transform="translate(653.4131,366.5566)"
           id="g74"><path
             id="path76"
             style="fill:#ffffff;fill-opacity:1;fill-rule:nonzero;stroke:none"
             d="M 0,0 V -19.316 L -14.009,0 h -2.839 v -25.042 h 3.074 V -5.539 L 0.468,-25.042 H 3.122 L 3.122,0 Z" /></g><g
           transform="translate(680.2373,366.5566)"
           id="g78"><path
             id="path80"
             style="fill:#ffffff;fill-opacity:1;fill-rule:nonzero;stroke:none"
             d="M 0,0 V -19.316 L -14.013,0 h -2.84 v -25.042 h 3.074 V -5.539 L 0.464,-25.042 H 3.117 L 3.117,0 Z" /></g><g
           transform="translate(701.6074,344.168)"
           id="g82"><path
             id="path84"
             style="fill:#ffffff;fill-opacity:1;fill-rule:nonzero;stroke:none"
             d="m 0,0 c -5.675,0 -9.915,4.236 -9.915,9.821 0,5.633 4.24,9.868 9.915,9.868 5.679,0 9.914,-4.235 9.914,-9.868 C 9.914,4.189 5.679,0 0,0 m 0,-3.072 c 7.587,0 13.081,5.54 13.081,12.893 0,7.402 -5.494,12.94 -13.081,12.94 -7.587,0 -13.125,-5.538 -13.125,-12.94 0,-7.353 5.538,-12.893 13.125,-12.893" /></g><g
           transform="translate(736.6416,366.5566)"
           id="g86"><path
             id="path88"
             style="fill:#ffffff;fill-opacity:1;fill-rule:nonzero;stroke:none"
             d="M 0,0 -7.963,-20.341 -16.062,0 h -3.445 l 10.105,-25.042 h 2.883 L 3.444,0 Z" /></g><g
           transform="translate(753.2461,362.2275)"
           id="g90"><path
             id="path92"
             style="fill:#ffffff;fill-opacity:1;fill-rule:nonzero;stroke:none"
             d="m 0,0 4.889,-11.869 h -9.685 z m 8.563,-20.713 h 3.352 L 1.444,4.329 h -2.932 l -10.241,-25.042 h 3.303 l 2.469,5.958 H 6.099 Z" /></g><g
           transform="translate(784.959,366.5566)"
           id="g94"><path
             id="path96"
             style="fill:#ffffff;fill-opacity:1;fill-rule:nonzero;stroke:none"
             d="m 0,0 h -18.341 v -2.979 h 7.636 v -22.063 h 3.118 V -2.979 H 0 Z" /></g><path
           id="path98"
           style="fill:#ffffff;fill-opacity:1;fill-rule:nonzero;stroke:none"
           d="m 789.199,341.515 h 3.166 v 25.042 h -3.166 z" /><g
           transform="translate(810.6396,344.168)"
           id="g100"><path
             id="path102"
             style="fill:#ffffff;fill-opacity:1;fill-rule:nonzero;stroke:none"
             d="m 0,0 c -5.68,0 -9.914,4.236 -9.914,9.821 0,5.633 4.234,9.868 9.914,9.868 5.68,0 9.914,-4.235 9.914,-9.868 C 9.914,4.189 5.68,0 0,0 m 0,-3.072 c 7.587,0 13.081,5.54 13.081,12.893 0,7.402 -5.494,12.94 -13.081,12.94 -7.587,0 -13.125,-5.538 -13.125,-12.94 0,-7.353 5.538,-12.893 13.125,-12.893" /></g><g
           transform="translate(845.7617,366.5566)"
           id="g104"><path
             id="path106"
             style="fill:#ffffff;fill-opacity:1;fill-rule:nonzero;stroke:none"
             d="M 0,0 V -19.316 L -14.013,0 h -2.84 v -25.042 h 3.075 V -5.539 L 0.464,-25.042 H 3.118 L 3.118,0 Z" /></g><g
           transform="translate(863.1797,341.1895)"
           id="g108"><path
             id="path110"
             style="fill:#ffffff;fill-opacity:1;fill-rule:nonzero;stroke:none"
             d="m 0,0 c 4.981,0 8.846,2.699 8.846,7.4 0,5.213 -4.421,6.238 -8.378,7.215 -3.215,0.744 -6.099,1.489 -6.099,4.189 0,2.421 2.278,3.817 5.353,3.817 3.025,0 5.308,-1.583 5.308,-4.375 h 3.117 c 0,4.515 -3.214,7.4 -8.376,7.4 -5.167,0 -8.52,-2.606 -8.52,-6.935 0,-5.026 4.279,-6.051 8.144,-6.936 C 2.654,10.984 5.586,10.286 5.586,7.354 5.586,4.701 3.118,3.071 0,3.071 c -3.489,0 -6.002,1.816 -6.002,4.935 H -9.217 C -9.217,3.071 -5.489,0 0,0" /></g><g
           transform="translate(450.4683,287.335)"
           id="g112"><path
             id="path114"
             style="fill:#ffffff;fill-opacity:1;fill-rule:nonzero;stroke:none"
             d="M 0,0 C 5.632,0 9.774,4.05 9.774,9.729 V 25.461 H 6.656 V 9.961 C 6.656,5.818 3.863,3.074 0,3.074 c -3.91,0 -6.656,2.744 -6.656,6.887 v 15.5 H -9.821 V 9.729 C -9.821,4.05 -5.633,0 0,0" /></g><g
           transform="translate(483.7026,312.7959)"
           id="g116"><path
             id="path118"
             style="fill:#ffffff;fill-opacity:1;fill-rule:nonzero;stroke:none"
             d="M 0,0 V -19.316 L -14.01,0 h -2.84 v -25.041 h 3.073 V -5.539 L 0.466,-25.041 H 3.119 L 3.119,0 Z" /></g><path
           id="path120"
           style="fill:#ffffff;fill-opacity:1;fill-rule:nonzero;stroke:none"
           d="m 493.675,287.755 h 3.165 v 25.041 h -3.165 z" /><g
           transform="translate(519.3955,312.7959)"
           id="g122"><path
             id="path124"
             style="fill:#ffffff;fill-opacity:1;fill-rule:nonzero;stroke:none"
             d="m 0,0 h -18.34 v -2.979 h 7.634 v -22.062 h 3.119 V -2.979 H 0 Z" /></g><path
           id="path126"
           style="fill:#ffffff;fill-opacity:1;fill-rule:nonzero;stroke:none"
           d="m 523.637,287.755 h 3.165 v 25.041 h -3.165 z" /><g
           transform="translate(550.5215,312.7959)"
           id="g128"><path
             id="path130"
             style="fill:#ffffff;fill-opacity:1;fill-rule:nonzero;stroke:none"
             d="M 0,0 V -19.316 L -14.011,0 h -2.839 v -25.041 h 3.073 V -5.539 L 0.466,-25.041 H 3.119 L 3.119,0 Z" /></g><g
           transform="translate(570.5928,300.1357)"
           id="g132"><path
             id="path134"
             style="fill:#ffffff;fill-opacity:1;fill-rule:nonzero;stroke:none"
             d="M 0,0 V -2.933 H 10.007 C 9.076,-7.028 5.492,-9.727 0.931,-9.727 c -5.679,0 -9.542,4.048 -9.542,9.82 0,5.772 3.956,9.821 9.542,9.821 4.189,0 7.773,-2.374 8.843,-6.051 h 3.258 c -1.116,5.4 -6.19,9.123 -12.194,9.123 -7.308,0 -12.614,-5.446 -12.614,-12.893 0,-7.447 5.306,-12.894 12.707,-12.894 7.215,0 12.335,5.26 12.474,12.801 z" /></g><g
           transform="translate(608.5879,300.1357)"
           id="g136"><path
             id="path138"
             style="fill:#ffffff;fill-opacity:1;fill-rule:nonzero;stroke:none"
             d="M 0,0 V -2.933 H 10.008 C 9.08,-7.028 5.494,-9.727 0.932,-9.727 c -5.679,0 -9.539,4.048 -9.539,9.82 0,5.772 3.953,9.821 9.539,9.821 4.191,0 7.773,-2.374 8.845,-6.051 h 3.26 c -1.117,5.4 -6.191,9.123 -12.198,9.123 -7.309,0 -12.612,-5.446 -12.612,-12.893 0,-7.447 5.303,-12.894 12.705,-12.894 7.216,0 12.335,5.26 12.476,12.801 z" /></g><g
           transform="translate(630.2275,290.7803)"
           id="g140"><path
             id="path142"
             style="fill:#ffffff;fill-opacity:1;fill-rule:nonzero;stroke:none"
             d="m 0,0 v 8.377 h 10.052 v 2.887 H 0 v 7.726 h 10.983 v 3.026 H -3.166 V -3.025 H 11.402 V 0 Z" /></g><g
           transform="translate(663.7295,312.7959)"
           id="g144"><path
             id="path146"
             style="fill:#ffffff;fill-opacity:1;fill-rule:nonzero;stroke:none"
             d="M 0,0 V -19.316 L -14.009,0 h -2.84 v -25.041 h 3.07 V -5.539 L 0.468,-25.041 H 3.117 V 0 Z" /></g><g
           transform="translate(676.8672,290.7803)"
           id="g148"><path
             id="path150"
             style="fill:#ffffff;fill-opacity:1;fill-rule:nonzero;stroke:none"
             d="m 0,0 v 8.377 h 10.052 v 2.887 H 0 v 7.726 h 10.983 v 3.026 H -3.166 V -3.025 H 11.403 V 0 Z" /></g><g
           transform="translate(696.6836,309.7705)"
           id="g152"><path
             id="path154"
             style="fill:#ffffff;fill-opacity:1;fill-rule:nonzero;stroke:none"
             d="m 0,0 h 6.146 c 3.07,0 5.12,-1.955 5.12,-4.655 0,-2.653 -2.05,-4.608 -5.12,-4.608 H 0 Z m 11.406,-22.016 h 3.538 l -6.006,10.147 c 3.303,0.931 5.538,3.677 5.538,7.214 0,4.423 -3.445,7.68 -8.144,7.68 H -3.162 V -22.016 H 0 v 9.774 h 5.679 z" /></g><g
           transform="translate(725.5254,308.4668)"
           id="g156"><path
             id="path158"
             style="fill:#ffffff;fill-opacity:1;fill-rule:nonzero;stroke:none"
             d="M 0,0 4.889,-11.869 H -4.792 Z M 8.567,-20.712 H 11.92 L 1.444,4.329 h -2.932 l -10.241,-25.041 h 3.307 l 2.465,5.957 H 6.099 Z" /></g><g
           transform="translate(757.2383,312.7959)"
           id="g160"><path
             id="path162"
             style="fill:#ffffff;fill-opacity:1;fill-rule:nonzero;stroke:none"
             d="m 0,0 h -18.336 v -2.979 h 7.631 v -22.062 h 3.118 V -2.979 H 0 Z" /></g><path
           id="path164"
           style="fill:#ffffff;fill-opacity:1;fill-rule:nonzero;stroke:none"
           d="m 761.482,287.755 h 3.166 v 25.041 h -3.166 z" /><g
           transform="translate(782.9189,290.4092)"
           id="g166"><path
             id="path168"
             style="fill:#ffffff;fill-opacity:1;fill-rule:nonzero;stroke:none"
             d="m 0,0 c -5.675,0 -9.91,4.233 -9.91,9.819 0,5.632 4.235,9.868 9.91,9.868 5.679,0 9.914,-4.236 9.914,-9.868 C 9.914,4.187 5.679,0 0,0 m 0,-3.074 c 7.587,0 13.081,5.539 13.081,12.893 0,7.401 -5.494,12.94 -13.081,12.94 -7.587,0 -13.125,-5.539 -13.125,-12.94 0,-7.354 5.538,-12.893 13.125,-12.893" /></g><g
           transform="translate(818.0459,312.7959)"
           id="g170"><path
             id="path172"
             style="fill:#ffffff;fill-opacity:1;fill-rule:nonzero;stroke:none"
             d="M 0,0 V -19.316 L -14.013,0 h -2.84 v -25.041 h 3.074 V -5.539 L 0.463,-25.041 H 3.117 L 3.117,0 Z" /></g><g
           transform="translate(835.4629,287.4277)"
           id="g174"><path
             id="path176"
             style="fill:#ffffff;fill-opacity:1;fill-rule:nonzero;stroke:none"
             d="m 0,0 c 4.981,0 8.842,2.699 8.842,7.401 0,5.214 -4.421,6.238 -8.378,7.215 -3.21,0.745 -6.094,1.49 -6.094,4.19 0,2.421 2.278,3.817 5.352,3.817 3.025,0 5.304,-1.583 5.304,-4.376 h 3.118 c 0,4.515 -3.21,7.4 -8.377,7.4 -5.167,0 -8.52,-2.606 -8.52,-6.934 0,-5.027 4.284,-6.052 8.149,-6.936 C 2.654,10.985 5.587,10.288 5.587,7.355 5.587,4.702 3.118,3.074 0,3.074 c -3.493,0 -6.006,1.815 -6.006,4.933 H -9.217 C -9.217,3.074 -5.493,0 0,0" /></g><g
           transform="translate(200.7451,318.083)"
           id="g178"><path
             id="path180"
             style="fill:#ffffff;fill-opacity:1;fill-rule:nonzero;stroke:none"
             d="M 0,0 -8.825,22.964 H -8.999 L -17.781,0 Z M -0.608,47.408 31.258,-31.635 H 11.912 l -5.826,15.819 h -29.997 l -5.825,-15.819 h -19.347 l 31.867,79.043 z" /></g><g
           transform="translate(306.3447,330.7197)"
           id="g182"><path
             id="path184"
             style="fill:#ffffff;fill-opacity:1;fill-rule:nonzero;stroke:none"
             d="m 0,0 v -17.168 c -2.032,-9.39 -6.5,-16.492 -13.39,-21.308 -6.869,-4.825 -14.542,-7.231 -22.998,-7.231 -10.673,0 -19.737,3.983 -27.215,11.981 -7.477,7.985 -11.216,17.625 -11.216,28.933 0,11.503 3.652,21.198 10.955,29.106 7.326,7.931 16.488,11.896 27.476,11.896 12.804,0 22.933,-4.51 30.388,-13.508 L -17.781,9.76 c -4.206,6.765 -10.064,10.153 -17.563,10.153 -5.565,0 -10.304,-2.418 -14.216,-7.233 -3.913,-4.826 -5.869,-10.654 -5.869,-17.473 0,-6.711 1.956,-12.451 5.869,-17.212 3.912,-4.771 8.651,-7.145 14.216,-7.145 4.575,0 8.564,1.393 11.955,4.182 3.412,2.789 5.13,6.471 5.13,11.068 H -36.388 V 0 Z" /></g><g
           transform="translate(309.3433,349.6738)"
           id="g186"><path
             id="path188"
             style="fill:#ffffff;fill-opacity:1;fill-rule:nonzero;stroke:none"
             d="M 0,0 V 15.817 H 55.43 V 0 H 36.692 V -63.226 H 18.738 V 0 Z" /></g><path
           id="path190"
           style="fill:#bdc4d0;fill-opacity:1;fill-rule:nonzero;stroke:none"
           d="m 401.43,375.762 h 6.536 v -98.04 h -6.536 z" /></g></g></g></svg>